<mxfile host="Electron" agent="Mozilla/5.0 (Windows NT 10.0; Win64; x64) AppleWebKit/537.36 (KHTML, like Gecko) draw.io/24.7.17 Chrome/128.0.6613.36 Electron/32.0.1 Safari/537.36" version="24.7.17" pages="7">
  <diagram id="mfEP5lVXHF4cSsrejWyi" name="Overview">
    <mxGraphModel dx="1086" dy="806" grid="1" gridSize="10" guides="1" tooltips="1" connect="1" arrows="1" fold="1" page="1" pageScale="1" pageWidth="850" pageHeight="1100" math="0" shadow="0">
      <root>
        <mxCell id="0" />
        <mxCell id="1" parent="0" />
        <mxCell id="XT9bkfdpumwztHaaBtS7-3" value="&lt;h1 style=&quot;margin-top: 0px;&quot;&gt;SMR 2025-764&lt;/h1&gt;&lt;p&gt;PB QR API Enhancement - New API for e-Invoicing TPI Inquiry&lt;br&gt;https://webnotes01.pbb.my/esmr/smr.nsf/0/DCCE4202919E5CEE48258C31002529A8?OpenDocument&lt;br&gt;&lt;/p&gt;&lt;p&gt;&lt;b style=&quot;background-color: initial;&quot;&gt;Background:&lt;/b&gt;&lt;br&gt;&lt;/p&gt;&lt;p&gt;1. The Bank is collaborating with Wezmart Techlab Sdn Bhd (Wezmart) under PB enterprise Digital SME Assist program, offering e-invoicing solution for PB QR merchants.&lt;/p&gt;&lt;p&gt;2. Interested PB QR merchant is required to sign up for PB QR API service and appoint Wezmart as their designated TPI for e-invoicing only.&lt;/p&gt;&lt;p&gt;3. Refer to the attached Dato approved memo for more details.&lt;/p&gt;&lt;p&gt;&lt;br&gt;&lt;/p&gt;&lt;p&gt;&lt;b&gt;PBe API:&lt;/b&gt;&lt;/p&gt;&lt;p&gt;1. ITD to create a new PB QR Inquiry API for Wezmart&#39;s e-invoicing purpose only.&lt;/p&gt;&lt;p&gt;2. The API allows Wezmart to query on designated QR merchant&#39;s transaction details.&lt;/p&gt;&lt;p&gt;3. Refer attached for more details on the API requirements.&lt;/p&gt;&lt;p&gt;4. Refer attached for transaction types for details. API to capture for transaction types: 030, 031 &amp;amp; 240.&lt;/p&gt;&lt;p&gt;&amp;nbsp;&lt;/p&gt;&lt;p&gt;&amp;nbsp;&lt;/p&gt;&lt;p&gt;&lt;b&gt;PB QR MPO:&lt;/b&gt;&lt;/p&gt;&lt;p&gt;1. ITD to create new Access Rights call &quot;Manage e-Invoicing&quot;.&amp;nbsp;&lt;/p&gt;&lt;p&gt;2. When merchant selected Interface Name &quot;Wezmart Techlab Sdn Bhd&quot;, system to by default allows only this one &quot;Manage e-Invoicing&quot; access right for merchant to select.&lt;/p&gt;&lt;p&gt;3. Refer attached for more details on the mock screens.&lt;/p&gt;" style="text;html=1;whiteSpace=wrap;overflow=hidden;rounded=0;" parent="1" vertex="1">
          <mxGeometry x="80" y="40" width="650" height="690" as="geometry" />
        </mxCell>
      </root>
    </mxGraphModel>
  </diagram>
  <diagram id="RanWXHusNi9JA65JQOJw" name="Design Pattern">
    <mxGraphModel dx="1434" dy="964" grid="1" gridSize="10" guides="1" tooltips="1" connect="1" arrows="1" fold="1" page="1" pageScale="1" pageWidth="850" pageHeight="1100" math="0" shadow="0">
      <root>
        <mxCell id="0" />
        <mxCell id="1" parent="0" />
        <mxCell id="19VzxnXKY4dH7rB0sl8t-1" value="&lt;h1 style=&quot;margin-top: 0px;&quot;&gt;Design Pattern&lt;/h1&gt;&lt;ul&gt;&lt;li&gt;Clean Architecture&lt;/li&gt;&lt;ul&gt;&lt;li&gt;API&lt;/li&gt;&lt;li&gt;Application&lt;/li&gt;&lt;li&gt;Domain&lt;/li&gt;&lt;li&gt;Infrastructure&lt;/li&gt;&lt;/ul&gt;&lt;li&gt;DDD&lt;/li&gt;&lt;li&gt;Mediatr&lt;/li&gt;&lt;ul&gt;&lt;li&gt;CQRS (Commands and queries)&lt;/li&gt;&lt;/ul&gt;&lt;li&gt;SOLID principles&lt;/li&gt;&lt;/ul&gt;&lt;div&gt;&lt;br&gt;&lt;/div&gt;&lt;div&gt;Deliverables&lt;/div&gt;&lt;div&gt;&lt;ul&gt;&lt;li&gt;Following design patterns&lt;/li&gt;&lt;li&gt;Seperation of concerns (shorter codes per file but more files)&lt;/li&gt;&lt;li&gt;Repository primary follow business requirement (domain model)&lt;/li&gt;&lt;ul&gt;&lt;li&gt;Repository should return domain objects&lt;/li&gt;&lt;li&gt;Database centric code should not be exposed to application layer&lt;/li&gt;&lt;/ul&gt;&lt;li&gt;&lt;span style=&quot;background-color: initial;&quot;&gt;Use DTO for API responses in order to encapsulate domain object from being exposed&lt;/span&gt;&lt;br&gt;&lt;/li&gt;&lt;/ul&gt;&lt;/div&gt;" style="text;html=1;whiteSpace=wrap;overflow=hidden;rounded=0;" parent="1" vertex="1">
          <mxGeometry x="80" y="80" width="670" height="350" as="geometry" />
        </mxCell>
      </root>
    </mxGraphModel>
  </diagram>
  <diagram id="BKiGREhGFYeRbuJz1G5d" name="Use Cases">
    <mxGraphModel dx="2049" dy="1377" grid="1" gridSize="10" guides="1" tooltips="1" connect="1" arrows="1" fold="1" page="1" pageScale="1" pageWidth="850" pageHeight="1100" math="0" shadow="0">
      <root>
        <mxCell id="0" />
        <mxCell id="1" parent="0" />
        <mxCell id="_TmKAVkOrpq8WFmgN6N7-18" style="edgeStyle=orthogonalEdgeStyle;rounded=0;orthogonalLoop=1;jettySize=auto;html=1;entryX=1;entryY=0.5;entryDx=0;entryDy=0;" parent="1" target="_TmKAVkOrpq8WFmgN6N7-8" edge="1">
          <mxGeometry relative="1" as="geometry">
            <mxPoint x="570" y="110.00000000000023" as="sourcePoint" />
          </mxGeometry>
        </mxCell>
        <mxCell id="_TmKAVkOrpq8WFmgN6N7-28" style="edgeStyle=orthogonalEdgeStyle;rounded=0;orthogonalLoop=1;jettySize=auto;html=1;entryX=1;entryY=0.5;entryDx=0;entryDy=0;" parent="1" source="ff-QZOQtNDs_DEMJWNeP-1" target="_TmKAVkOrpq8WFmgN6N7-25" edge="1">
          <mxGeometry relative="1" as="geometry" />
        </mxCell>
        <mxCell id="_TmKAVkOrpq8WFmgN6N7-29" style="edgeStyle=orthogonalEdgeStyle;rounded=0;orthogonalLoop=1;jettySize=auto;html=1;entryX=1;entryY=0.5;entryDx=0;entryDy=0;" parent="1" source="ff-QZOQtNDs_DEMJWNeP-1" target="_TmKAVkOrpq8WFmgN6N7-17" edge="1">
          <mxGeometry relative="1" as="geometry" />
        </mxCell>
        <mxCell id="_TmKAVkOrpq8WFmgN6N7-30" style="edgeStyle=orthogonalEdgeStyle;rounded=0;orthogonalLoop=1;jettySize=auto;html=1;entryX=0;entryY=0.5;entryDx=0;entryDy=0;" parent="1" source="ff-QZOQtNDs_DEMJWNeP-1" target="ff-QZOQtNDs_DEMJWNeP-3" edge="1">
          <mxGeometry relative="1" as="geometry" />
        </mxCell>
        <mxCell id="_TmKAVkOrpq8WFmgN6N7-31" style="edgeStyle=orthogonalEdgeStyle;rounded=0;orthogonalLoop=1;jettySize=auto;html=1;entryX=0;entryY=0.5;entryDx=0;entryDy=0;" parent="1" source="ff-QZOQtNDs_DEMJWNeP-1" target="He2-il0CojQo2N76LtX8-9" edge="1">
          <mxGeometry relative="1" as="geometry" />
        </mxCell>
        <mxCell id="_TmKAVkOrpq8WFmgN6N7-32" style="edgeStyle=orthogonalEdgeStyle;rounded=0;orthogonalLoop=1;jettySize=auto;html=1;entryX=0;entryY=0.5;entryDx=0;entryDy=0;" parent="1" source="ff-QZOQtNDs_DEMJWNeP-1" target="_TmKAVkOrpq8WFmgN6N7-1" edge="1">
          <mxGeometry relative="1" as="geometry" />
        </mxCell>
        <mxCell id="ff-QZOQtNDs_DEMJWNeP-1" value="Merchant&lt;div&gt;via&amp;nbsp;&lt;span style=&quot;background-color: initial;&quot;&gt;MPO&lt;/span&gt;&lt;/div&gt;" style="shape=umlActor;verticalLabelPosition=bottom;verticalAlign=top;html=1;outlineConnect=0;" parent="1" vertex="1">
          <mxGeometry x="570" y="80" width="30" height="60" as="geometry" />
        </mxCell>
        <mxCell id="ff-QZOQtNDs_DEMJWNeP-3" value="8. Insert new Company Merchant mapping table" style="ellipse;whiteSpace=wrap;html=1;" parent="1" vertex="1">
          <mxGeometry x="680" y="70" width="120" height="80" as="geometry" />
        </mxCell>
        <mxCell id="_TmKAVkOrpq8WFmgN6N7-33" style="edgeStyle=orthogonalEdgeStyle;rounded=0;orthogonalLoop=1;jettySize=auto;html=1;entryX=0;entryY=0.5;entryDx=0;entryDy=0;" parent="1" source="ff-QZOQtNDs_DEMJWNeP-8" target="He2-il0CojQo2N76LtX8-1" edge="1">
          <mxGeometry relative="1" as="geometry" />
        </mxCell>
        <mxCell id="_TmKAVkOrpq8WFmgN6N7-35" style="edgeStyle=orthogonalEdgeStyle;rounded=0;orthogonalLoop=1;jettySize=auto;html=1;entryX=0;entryY=0.5;entryDx=0;entryDy=0;" parent="1" source="ff-QZOQtNDs_DEMJWNeP-8" target="ff-QZOQtNDs_DEMJWNeP-9" edge="1">
          <mxGeometry relative="1" as="geometry" />
        </mxCell>
        <mxCell id="ff-QZOQtNDs_DEMJWNeP-8" value="eInvoicing Company" style="shape=umlActor;verticalLabelPosition=bottom;verticalAlign=top;html=1;outlineConnect=0;" parent="1" vertex="1">
          <mxGeometry x="425" y="710" width="30" height="60" as="geometry" />
        </mxCell>
        <mxCell id="ff-QZOQtNDs_DEMJWNeP-9" value="17. Retrieve Merchant&#39;s QR Transaction Details by Date" style="ellipse;whiteSpace=wrap;html=1;fillColor=#d5e8d4;strokeColor=#82b366;" parent="1" vertex="1">
          <mxGeometry x="545" y="810" width="120" height="80" as="geometry" />
        </mxCell>
        <mxCell id="OJyZ6oOizAQF8vzd9toX-17" style="edgeStyle=orthogonalEdgeStyle;rounded=0;orthogonalLoop=1;jettySize=auto;html=1;exitX=1;exitY=0.5;exitDx=0;exitDy=0;" parent="1" source="He2-il0CojQo2N76LtX8-1" target="OJyZ6oOizAQF8vzd9toX-14" edge="1">
          <mxGeometry relative="1" as="geometry" />
        </mxCell>
        <mxCell id="He2-il0CojQo2N76LtX8-1" value="1. Generate JWT Token by providing&lt;br&gt;client id,&amp;nbsp;secret,&lt;br&gt;merchantAccessKey" style="ellipse;whiteSpace=wrap;html=1;fillColor=#d5e8d4;strokeColor=#82b366;" parent="1" vertex="1">
          <mxGeometry x="545" y="610" width="120" height="80" as="geometry" />
        </mxCell>
        <mxCell id="iWZErqiruhpSbKIoRpQd-1" style="edgeStyle=orthogonalEdgeStyle;rounded=0;orthogonalLoop=1;jettySize=auto;html=1;entryX=0;entryY=0.5;entryDx=0;entryDy=0;" parent="1" source="He2-il0CojQo2N76LtX8-5" target="He2-il0CojQo2N76LtX8-6" edge="1">
          <mxGeometry relative="1" as="geometry" />
        </mxCell>
        <mxCell id="iWZErqiruhpSbKIoRpQd-3" style="edgeStyle=orthogonalEdgeStyle;rounded=0;orthogonalLoop=1;jettySize=auto;html=1;entryX=0;entryY=0.5;entryDx=0;entryDy=0;" parent="1" source="He2-il0CojQo2N76LtX8-5" target="He2-il0CojQo2N76LtX8-14" edge="1">
          <mxGeometry relative="1" as="geometry" />
        </mxCell>
        <mxCell id="iWZErqiruhpSbKIoRpQd-6" style="edgeStyle=orthogonalEdgeStyle;rounded=0;orthogonalLoop=1;jettySize=auto;html=1;entryX=0;entryY=0.5;entryDx=0;entryDy=0;" parent="1" source="He2-il0CojQo2N76LtX8-5" target="iWZErqiruhpSbKIoRpQd-5" edge="1">
          <mxGeometry relative="1" as="geometry" />
        </mxCell>
        <mxCell id="BulCFzRd3mYghd_37msm-1" style="edgeStyle=orthogonalEdgeStyle;rounded=0;orthogonalLoop=1;jettySize=auto;html=1;entryX=0;entryY=0.5;entryDx=0;entryDy=0;" parent="1" source="He2-il0CojQo2N76LtX8-5" target="iWZErqiruhpSbKIoRpQd-4" edge="1">
          <mxGeometry relative="1" as="geometry" />
        </mxCell>
        <mxCell id="BulCFzRd3mYghd_37msm-2" style="edgeStyle=orthogonalEdgeStyle;rounded=0;orthogonalLoop=1;jettySize=auto;html=1;entryX=0;entryY=0.5;entryDx=0;entryDy=0;" parent="1" source="He2-il0CojQo2N76LtX8-5" target="Po4xLEQwrrdzCeqHnn40-1" edge="1">
          <mxGeometry relative="1" as="geometry" />
        </mxCell>
        <mxCell id="_TmKAVkOrpq8WFmgN6N7-23" style="edgeStyle=orthogonalEdgeStyle;rounded=0;orthogonalLoop=1;jettySize=auto;html=1;entryX=0;entryY=0.5;entryDx=0;entryDy=0;" parent="1" source="He2-il0CojQo2N76LtX8-5" target="_TmKAVkOrpq8WFmgN6N7-8" edge="1">
          <mxGeometry relative="1" as="geometry">
            <Array as="points">
              <mxPoint x="350" y="50" />
              <mxPoint x="350" y="190" />
            </Array>
          </mxGeometry>
        </mxCell>
        <mxCell id="_TmKAVkOrpq8WFmgN6N7-26" style="edgeStyle=orthogonalEdgeStyle;rounded=0;orthogonalLoop=1;jettySize=auto;html=1;entryX=0;entryY=0.5;entryDx=0;entryDy=0;" parent="1" source="He2-il0CojQo2N76LtX8-5" target="_TmKAVkOrpq8WFmgN6N7-25" edge="1">
          <mxGeometry relative="1" as="geometry">
            <Array as="points">
              <mxPoint x="350" y="50" />
              <mxPoint x="350" y="290" />
            </Array>
          </mxGeometry>
        </mxCell>
        <mxCell id="_TmKAVkOrpq8WFmgN6N7-27" style="edgeStyle=orthogonalEdgeStyle;rounded=0;orthogonalLoop=1;jettySize=auto;html=1;entryX=0;entryY=0.5;entryDx=0;entryDy=0;" parent="1" source="He2-il0CojQo2N76LtX8-5" target="_TmKAVkOrpq8WFmgN6N7-17" edge="1">
          <mxGeometry relative="1" as="geometry">
            <Array as="points">
              <mxPoint x="350" y="50" />
              <mxPoint x="350" y="390" />
            </Array>
          </mxGeometry>
        </mxCell>
        <mxCell id="_TmKAVkOrpq8WFmgN6N7-36" style="edgeStyle=orthogonalEdgeStyle;rounded=0;orthogonalLoop=1;jettySize=auto;html=1;entryX=0;entryY=0.5;entryDx=0;entryDy=0;" parent="1" source="He2-il0CojQo2N76LtX8-5" target="_TmKAVkOrpq8WFmgN6N7-2" edge="1">
          <mxGeometry relative="1" as="geometry" />
        </mxCell>
        <mxCell id="_TmKAVkOrpq8WFmgN6N7-37" style="edgeStyle=orthogonalEdgeStyle;rounded=0;orthogonalLoop=1;jettySize=auto;html=1;entryX=0;entryY=0.5;entryDx=0;entryDy=0;" parent="1" source="He2-il0CojQo2N76LtX8-5" target="WM5SUetyEBNGX6SktupN-1" edge="1">
          <mxGeometry relative="1" as="geometry" />
        </mxCell>
        <mxCell id="_TmKAVkOrpq8WFmgN6N7-38" style="edgeStyle=orthogonalEdgeStyle;rounded=0;orthogonalLoop=1;jettySize=auto;html=1;entryX=0;entryY=0.5;entryDx=0;entryDy=0;" parent="1" source="He2-il0CojQo2N76LtX8-5" target="_TmKAVkOrpq8WFmgN6N7-3" edge="1">
          <mxGeometry relative="1" as="geometry" />
        </mxCell>
        <mxCell id="_TmKAVkOrpq8WFmgN6N7-39" style="edgeStyle=orthogonalEdgeStyle;rounded=0;orthogonalLoop=1;jettySize=auto;html=1;entryX=0;entryY=0.5;entryDx=0;entryDy=0;" parent="1" source="He2-il0CojQo2N76LtX8-5" target="_TmKAVkOrpq8WFmgN6N7-4" edge="1">
          <mxGeometry relative="1" as="geometry" />
        </mxCell>
        <mxCell id="_TmKAVkOrpq8WFmgN6N7-40" style="edgeStyle=orthogonalEdgeStyle;rounded=0;orthogonalLoop=1;jettySize=auto;html=1;entryX=0;entryY=0.5;entryDx=0;entryDy=0;" parent="1" source="He2-il0CojQo2N76LtX8-5" target="_TmKAVkOrpq8WFmgN6N7-5" edge="1">
          <mxGeometry relative="1" as="geometry" />
        </mxCell>
        <mxCell id="He2-il0CojQo2N76LtX8-5" value="Back Office Users&lt;div&gt;via BBO&lt;/div&gt;" style="shape=umlActor;verticalLabelPosition=bottom;verticalAlign=top;html=1;outlineConnect=0;" parent="1" vertex="1">
          <mxGeometry x="80" y="20" width="30" height="60" as="geometry" />
        </mxCell>
        <mxCell id="He2-il0CojQo2N76LtX8-6" value="3. Insert new&amp;nbsp;Company&lt;div&gt;Return 426 for duplicate&lt;/div&gt;" style="ellipse;whiteSpace=wrap;html=1;fillColor=#d5e8d4;strokeColor=#82b366;" parent="1" vertex="1">
          <mxGeometry x="200" y="80" width="120" height="80" as="geometry" />
        </mxCell>
        <mxCell id="He2-il0CojQo2N76LtX8-9" value="4. Regenerate merchant access key" style="ellipse;whiteSpace=wrap;html=1;" parent="1" vertex="1">
          <mxGeometry x="680" y="200" width="120" height="80" as="geometry" />
        </mxCell>
        <mxCell id="He2-il0CojQo2N76LtX8-14" value="Regenerate Company Id and secret" style="ellipse;whiteSpace=wrap;html=1;fillColor=#d5e8d4;strokeColor=#82b366;" parent="1" vertex="1">
          <mxGeometry x="200" y="490" width="120" height="80" as="geometry" />
        </mxCell>
        <mxCell id="iWZErqiruhpSbKIoRpQd-4" value="13. Get Company-Merchant info" style="ellipse;whiteSpace=wrap;html=1;fillColor=#d5e8d4;strokeColor=#82b366;" parent="1" vertex="1">
          <mxGeometry x="200" y="590" width="120" height="80" as="geometry" />
        </mxCell>
        <mxCell id="iWZErqiruhpSbKIoRpQd-5" value="12. Activate Company-Merchant by Merchant Access Key" style="ellipse;whiteSpace=wrap;html=1;fillColor=#d5e8d4;strokeColor=#82b366;" parent="1" vertex="1">
          <mxGeometry x="200" y="890" width="120" height="80" as="geometry" />
        </mxCell>
        <mxCell id="Po4xLEQwrrdzCeqHnn40-1" value="16. Suspend all Companies by Merchant ID" style="ellipse;whiteSpace=wrap;html=1;fillColor=#d5e8d4;strokeColor=#82b366;" parent="1" vertex="1">
          <mxGeometry x="200" y="990" width="120" height="80" as="geometry" />
        </mxCell>
        <mxCell id="WM5SUetyEBNGX6SktupN-1" value="Delete Company to ensure BBO side and our side sync&amp;nbsp;&lt;div&gt;&lt;font style=&quot;font-size: 8px;&quot;&gt;(for cases where BBO side failed, they will call to delete)&lt;/font&gt;&lt;/div&gt;" style="ellipse;whiteSpace=wrap;html=1;fillColor=#d5e8d4;strokeColor=#82b366;" parent="1" vertex="1">
          <mxGeometry x="200" y="290" width="120" height="80" as="geometry" />
        </mxCell>
        <mxCell id="_TmKAVkOrpq8WFmgN6N7-1" value="9. Grant access right to company" style="ellipse;whiteSpace=wrap;html=1;" parent="1" vertex="1">
          <mxGeometry x="680" y="330" width="120" height="80" as="geometry" />
        </mxCell>
        <mxCell id="_TmKAVkOrpq8WFmgN6N7-2" value="6. Update Company Status &lt;font style=&quot;font-size: 8px;&quot;&gt;(To call when&amp;nbsp; #3 Returns 426 Duplicate)&lt;/font&gt;" style="ellipse;whiteSpace=wrap;html=1;fillColor=#d5e8d4;strokeColor=#82b366;" parent="1" vertex="1">
          <mxGeometry x="200" y="190" width="120" height="80" as="geometry" />
        </mxCell>
        <mxCell id="_TmKAVkOrpq8WFmgN6N7-3" value="7. Update Merchant Status" style="ellipse;whiteSpace=wrap;html=1;fillColor=#d5e8d4;strokeColor=#82b366;" parent="1" vertex="1">
          <mxGeometry x="200" y="390" width="120" height="80" as="geometry" />
        </mxCell>
        <mxCell id="_TmKAVkOrpq8WFmgN6N7-4" value="14. Get available claim groups" style="ellipse;whiteSpace=wrap;html=1;fillColor=#d5e8d4;strokeColor=#82b366;" parent="1" vertex="1">
          <mxGeometry x="200" y="690" width="120" height="80" as="geometry" />
        </mxCell>
        <mxCell id="_TmKAVkOrpq8WFmgN6N7-5" value="15. Insert company claim group" style="ellipse;whiteSpace=wrap;html=1;fillColor=#d5e8d4;strokeColor=#82b366;" parent="1" vertex="1">
          <mxGeometry x="200" y="790" width="120" height="80" as="geometry" />
        </mxCell>
        <mxCell id="_TmKAVkOrpq8WFmgN6N7-8" value="5. Get Claims by Merchant ID&lt;div&gt;(Group By Company, Claim Group, Claim)&lt;/div&gt;" style="ellipse;whiteSpace=wrap;html=1;fillColor=#d5e8d4;strokeColor=#82b366;" parent="1" vertex="1">
          <mxGeometry x="390" y="150" width="120" height="80" as="geometry" />
        </mxCell>
        <mxCell id="_TmKAVkOrpq8WFmgN6N7-17" value="10. Get Company by Merchant ID" style="ellipse;whiteSpace=wrap;html=1;fillColor=#d5e8d4;strokeColor=#82b366;" parent="1" vertex="1">
          <mxGeometry x="390" y="350" width="120" height="80" as="geometry" />
        </mxCell>
        <mxCell id="_TmKAVkOrpq8WFmgN6N7-25" value="11. Get Claims by Company-Merchant ID&lt;div&gt;(Group By Company, Claim Group, Claim)&lt;/div&gt;" style="ellipse;whiteSpace=wrap;html=1;fillColor=#d5e8d4;strokeColor=#82b366;" parent="1" vertex="1">
          <mxGeometry x="390" y="250" width="120" height="80" as="geometry" />
        </mxCell>
        <mxCell id="MooC23PdaajWAzekx8_E-1" value="4. Regenerate merchant access key" style="ellipse;whiteSpace=wrap;html=1;fillColor=#d5e8d4;strokeColor=#82b366;" parent="1" vertex="1">
          <mxGeometry x="680" y="200" width="120" height="80" as="geometry" />
        </mxCell>
        <mxCell id="MooC23PdaajWAzekx8_E-2" value="8. Insert new Company Merchant mapping table" style="ellipse;whiteSpace=wrap;html=1;fillColor=#d5e8d4;strokeColor=#82b366;" parent="1" vertex="1">
          <mxGeometry x="680" y="70" width="120" height="80" as="geometry" />
        </mxCell>
        <mxCell id="MooC23PdaajWAzekx8_E-3" value="17. Retrieve Merchant&#39;s QR Transaction Details by Date" style="ellipse;whiteSpace=wrap;html=1;fillColor=#d5e8d4;strokeColor=#82b366;" parent="1" vertex="1">
          <mxGeometry x="545" y="810" width="120" height="80" as="geometry" />
        </mxCell>
        <mxCell id="MooC23PdaajWAzekx8_E-4" value="4. Regenerate merchant access key" style="ellipse;whiteSpace=wrap;html=1;fillColor=#d5e8d4;strokeColor=#82b366;" parent="1" vertex="1">
          <mxGeometry x="680" y="200" width="120" height="80" as="geometry" />
        </mxCell>
        <mxCell id="MooC23PdaajWAzekx8_E-5" value="4. Regenerate merchant access key" style="ellipse;whiteSpace=wrap;html=1;fillColor=#d5e8d4;strokeColor=#82b366;" parent="1" vertex="1">
          <mxGeometry x="680" y="200" width="120" height="80" as="geometry" />
        </mxCell>
        <mxCell id="MooC23PdaajWAzekx8_E-6" value="8. Insert new Company Merchant mapping table" style="ellipse;whiteSpace=wrap;html=1;fillColor=#d5e8d4;strokeColor=#82b366;" parent="1" vertex="1">
          <mxGeometry x="680" y="70" width="120" height="80" as="geometry" />
        </mxCell>
        <mxCell id="Gh9UsU4um2Ni1njB3U3n-6" value="7. Update Merchant Status" style="ellipse;whiteSpace=wrap;html=1;fillColor=#d5e8d4;strokeColor=#82b366;" parent="1" vertex="1">
          <mxGeometry x="200" y="390" width="120" height="80" as="geometry" />
        </mxCell>
        <mxCell id="Gh9UsU4um2Ni1njB3U3n-7" value="Delete Company to ensure BBO side and our side sync&amp;nbsp;&lt;div&gt;&lt;font style=&quot;font-size: 8px;&quot;&gt;(for cases where BBO side failed, they will call to delete)&lt;/font&gt;&lt;/div&gt;" style="ellipse;whiteSpace=wrap;html=1;fillColor=#d5e8d4;strokeColor=#82b366;" parent="1" vertex="1">
          <mxGeometry x="200" y="290" width="120" height="80" as="geometry" />
        </mxCell>
        <mxCell id="o1VQLZ6mstL0JOxtxUad-5" style="edgeStyle=orthogonalEdgeStyle;rounded=0;orthogonalLoop=1;jettySize=auto;html=1;exitX=0.5;exitY=1;exitDx=0;exitDy=0;entryX=0.5;entryY=0;entryDx=0;entryDy=0;sketch=1;curveFitting=1;jiggle=2;dashed=1;strokeColor=#66B2FF;" parent="1" source="Gh9UsU4um2Ni1njB3U3n-8" target="o1VQLZ6mstL0JOxtxUad-3" edge="1">
          <mxGeometry relative="1" as="geometry" />
        </mxCell>
        <mxCell id="Gh9UsU4um2Ni1njB3U3n-8" value="10. Get Company by Merchant ID" style="ellipse;whiteSpace=wrap;html=1;fillColor=#d5e8d4;strokeColor=#82b366;" parent="1" vertex="1">
          <mxGeometry x="390" y="350" width="120" height="80" as="geometry" />
        </mxCell>
        <mxCell id="Gh9UsU4um2Ni1njB3U3n-9" value="6. Update Company Status &lt;font style=&quot;font-size: 8px;&quot;&gt;(To call when&amp;nbsp; #3 Returns 426 Duplicate)&lt;/font&gt;" style="ellipse;whiteSpace=wrap;html=1;fillColor=#d5e8d4;strokeColor=#82b366;" parent="1" vertex="1">
          <mxGeometry x="200" y="190" width="120" height="80" as="geometry" />
        </mxCell>
        <mxCell id="Gh9UsU4um2Ni1njB3U3n-10" value="12. Activate Company-Merchant by Merchant Access Key" style="ellipse;whiteSpace=wrap;html=1;fillColor=#d5e8d4;strokeColor=#82b366;" parent="1" vertex="1">
          <mxGeometry x="200" y="890" width="120" height="80" as="geometry" />
        </mxCell>
        <mxCell id="PjCrH7fE-D6VzLz7-1x5-1" value="&lt;ol&gt;&lt;li&gt;Models&lt;/li&gt;&lt;li&gt;DTOs&lt;/li&gt;&lt;li&gt;Contracts &amp;amp; Repos&lt;/li&gt;&lt;li&gt;Controllers&lt;/li&gt;&lt;li&gt;Handlers&lt;/li&gt;&lt;/ol&gt;" style="text;html=1;align=left;verticalAlign=middle;whiteSpace=wrap;rounded=0;strokeColor=#666666;fillColor=#f5f5f5;fontColor=#333333;" parent="1" vertex="1">
          <mxGeometry x="10" y="190" width="120" height="120" as="geometry" />
        </mxCell>
        <mxCell id="OJyZ6oOizAQF8vzd9toX-1" value="&lt;b&gt;Tables Involved:&lt;/b&gt;&lt;div&gt;&lt;ol style=&quot;text-align: left;&quot;&gt;&lt;li&gt;&lt;span style=&quot;background-color: initial;&quot;&gt;Company&lt;/span&gt;&lt;/li&gt;&lt;li&gt;&lt;span style=&quot;background-color: initial;&quot;&gt;Company&lt;/span&gt;_Merchant&lt;/li&gt;&lt;li&gt;&lt;span style=&quot;background-color: initial;&quot;&gt;ClaimGroup&lt;/span&gt;&lt;/li&gt;&lt;li&gt;&lt;span style=&quot;background-color: initial;&quot;&gt;Claim&lt;/span&gt;&lt;/li&gt;&lt;li&gt;&lt;span style=&quot;background-color: initial;&quot;&gt;Company_Merchant_ClaimGroup&lt;/span&gt;&lt;/li&gt;&lt;/ol&gt;&lt;/div&gt;" style="rounded=0;whiteSpace=wrap;html=1;fillColor=#fff2cc;strokeColor=#d6b656;" parent="1" vertex="1">
          <mxGeometry x="530" y="950" width="240" height="120" as="geometry" />
        </mxCell>
        <mxCell id="OJyZ6oOizAQF8vzd9toX-7" value="GetClaimKeysByMerchantId" style="rounded=0;whiteSpace=wrap;html=1;fillColor=#dae8fc;strokeColor=#6c8ebf;" parent="1" vertex="1">
          <mxGeometry x="377" y="220" width="150" height="20" as="geometry" />
        </mxCell>
        <mxCell id="OJyZ6oOizAQF8vzd9toX-14" value="2.&amp;nbsp;Get EInvoice Company Claim Keys" style="ellipse;whiteSpace=wrap;html=1;fillColor=#d5e8d4;strokeColor=#82b366;" parent="1" vertex="1">
          <mxGeometry x="720" y="615" width="110" height="70" as="geometry" />
        </mxCell>
        <mxCell id="o1VQLZ6mstL0JOxtxUad-3" value="Currently not even in use" style="text;html=1;align=center;verticalAlign=middle;whiteSpace=wrap;rounded=0;fontColor=#66B2FF;" parent="1" vertex="1">
          <mxGeometry x="390" y="465" width="110" height="30" as="geometry" />
        </mxCell>
        <mxCell id="_5UwL2bYwKWKmoPUFN9k-1" value="GetTpiClaimDetailsByMerchant" style="rounded=0;whiteSpace=wrap;html=1;fillColor=#dae8fc;strokeColor=#6c8ebf;" parent="1" vertex="1">
          <mxGeometry x="359.5" y="326" width="185" height="20" as="geometry" />
        </mxCell>
      </root>
    </mxGraphModel>
  </diagram>
  <diagram name="Requests" id="H5fNXi9ZFwOAAU6nWhHV">
    <mxGraphModel dx="3585" dy="3510" grid="1" gridSize="10" guides="1" tooltips="1" connect="1" arrows="1" fold="1" page="1" pageScale="1" pageWidth="850" pageHeight="1100" math="0" shadow="0">
      <root>
        <mxCell id="nGekux-X6Rqf-3TaoWdD-0" />
        <mxCell id="nGekux-X6Rqf-3TaoWdD-1" parent="nGekux-X6Rqf-3TaoWdD-0" />
        <mxCell id="nGekux-X6Rqf-3TaoWdD-9" value="8. Insert new Company Merchant mapping table" style="ellipse;whiteSpace=wrap;html=1;" parent="nGekux-X6Rqf-3TaoWdD-1" vertex="1">
          <mxGeometry x="840" y="70" width="120" height="80" as="geometry" />
        </mxCell>
        <mxCell id="nGekux-X6Rqf-3TaoWdD-10" style="edgeStyle=orthogonalEdgeStyle;rounded=0;orthogonalLoop=1;jettySize=auto;html=1;entryX=0;entryY=0.5;entryDx=0;entryDy=0;" parent="nGekux-X6Rqf-3TaoWdD-1" source="nGekux-X6Rqf-3TaoWdD-12" target="nGekux-X6Rqf-3TaoWdD-15" edge="1">
          <mxGeometry relative="1" as="geometry" />
        </mxCell>
        <mxCell id="nGekux-X6Rqf-3TaoWdD-11" style="edgeStyle=orthogonalEdgeStyle;rounded=0;orthogonalLoop=1;jettySize=auto;html=1;entryX=0;entryY=0.5;entryDx=0;entryDy=0;" parent="nGekux-X6Rqf-3TaoWdD-1" source="nGekux-X6Rqf-3TaoWdD-12" target="nGekux-X6Rqf-3TaoWdD-13" edge="1">
          <mxGeometry relative="1" as="geometry" />
        </mxCell>
        <mxCell id="nGekux-X6Rqf-3TaoWdD-12" value="eInvoicing Company" style="shape=umlActor;verticalLabelPosition=bottom;verticalAlign=top;html=1;outlineConnect=0;" parent="nGekux-X6Rqf-3TaoWdD-1" vertex="1">
          <mxGeometry x="777.5" y="650" width="30" height="60" as="geometry" />
        </mxCell>
        <mxCell id="nGekux-X6Rqf-3TaoWdD-13" value="17. Retrieve Merchant&#39;s QR Transaction Details by Date" style="ellipse;whiteSpace=wrap;html=1;fillColor=#d5e8d4;strokeColor=#82b366;" parent="nGekux-X6Rqf-3TaoWdD-1" vertex="1">
          <mxGeometry x="905" y="770" width="120" height="80" as="geometry" />
        </mxCell>
        <mxCell id="jlAbe9bzsYJkP6ITSsS7-2" style="edgeStyle=orthogonalEdgeStyle;rounded=0;orthogonalLoop=1;jettySize=auto;html=1;exitX=0.5;exitY=1;exitDx=0;exitDy=0;entryX=0;entryY=0.5;entryDx=0;entryDy=0;" parent="nGekux-X6Rqf-3TaoWdD-1" source="nGekux-X6Rqf-3TaoWdD-15" target="nGekux-X6Rqf-3TaoWdD-63" edge="1">
          <mxGeometry relative="1" as="geometry" />
        </mxCell>
        <mxCell id="nGekux-X6Rqf-3TaoWdD-15" value="1. Generate JWT Token by providing&lt;br&gt;client id,&amp;nbsp;secret,&lt;br&gt;merchantAccessKey" style="ellipse;whiteSpace=wrap;html=1;fillColor=#d5e8d4;strokeColor=#82b366;" parent="nGekux-X6Rqf-3TaoWdD-1" vertex="1">
          <mxGeometry x="905" y="570" width="120" height="80" as="geometry" />
        </mxCell>
        <mxCell id="nGekux-X6Rqf-3TaoWdD-30" value="3. Insert new&amp;nbsp;Company&lt;div&gt;Return 426 for duplicate&lt;/div&gt;" style="ellipse;whiteSpace=wrap;html=1;fillColor=#f8cecc;strokeColor=#b85450;" parent="nGekux-X6Rqf-3TaoWdD-1" vertex="1">
          <mxGeometry x="25" y="55" width="120" height="80" as="geometry" />
        </mxCell>
        <mxCell id="nGekux-X6Rqf-3TaoWdD-31" value="4. Regenerate merchant access key" style="ellipse;whiteSpace=wrap;html=1;" parent="nGekux-X6Rqf-3TaoWdD-1" vertex="1">
          <mxGeometry x="840" y="200" width="120" height="80" as="geometry" />
        </mxCell>
        <mxCell id="nGekux-X6Rqf-3TaoWdD-32" value="Regenerate Company Id and secret" style="ellipse;whiteSpace=wrap;html=1;fillColor=#f8cecc;strokeColor=#b85450;" parent="nGekux-X6Rqf-3TaoWdD-1" vertex="1">
          <mxGeometry x="25" y="465" width="120" height="80" as="geometry" />
        </mxCell>
        <mxCell id="nGekux-X6Rqf-3TaoWdD-33" value="13. Get Company-Merchant info" style="ellipse;whiteSpace=wrap;html=1;fillColor=#f8cecc;strokeColor=#b85450;" parent="nGekux-X6Rqf-3TaoWdD-1" vertex="1">
          <mxGeometry x="25" y="565" width="120" height="80" as="geometry" />
        </mxCell>
        <mxCell id="nGekux-X6Rqf-3TaoWdD-34" value="12. Activate Company-Merchant by Merchant Access Key" style="ellipse;whiteSpace=wrap;html=1;fillColor=#f8cecc;strokeColor=#b85450;" parent="nGekux-X6Rqf-3TaoWdD-1" vertex="1">
          <mxGeometry x="25" y="970" width="120" height="80" as="geometry" />
        </mxCell>
        <mxCell id="nGekux-X6Rqf-3TaoWdD-35" value="16. Suspend all Companies by Merchant ID" style="ellipse;whiteSpace=wrap;html=1;fillColor=#f8cecc;strokeColor=#b85450;" parent="nGekux-X6Rqf-3TaoWdD-1" vertex="1">
          <mxGeometry x="25" y="1070" width="120" height="80" as="geometry" />
        </mxCell>
        <mxCell id="nGekux-X6Rqf-3TaoWdD-36" value="Delete Company to ensure BBO side and our side sync&amp;nbsp;&lt;div&gt;&lt;font style=&quot;font-size: 8px;&quot;&gt;(for cases where BBO side failed, they will call to delete)&lt;/font&gt;&lt;/div&gt;" style="ellipse;whiteSpace=wrap;html=1;fillColor=#f8cecc;strokeColor=#b85450;" parent="nGekux-X6Rqf-3TaoWdD-1" vertex="1">
          <mxGeometry x="25" y="265" width="120" height="80" as="geometry" />
        </mxCell>
        <mxCell id="nGekux-X6Rqf-3TaoWdD-37" value="9. Grant access right to company" style="ellipse;whiteSpace=wrap;html=1;" parent="nGekux-X6Rqf-3TaoWdD-1" vertex="1">
          <mxGeometry x="840" y="310" width="120" height="80" as="geometry" />
        </mxCell>
        <mxCell id="nGekux-X6Rqf-3TaoWdD-38" value="6. Update Company Status &lt;font style=&quot;font-size: 8px;&quot;&gt;(To call when&amp;nbsp; #3 Returns 426 Duplicate)&lt;/font&gt;" style="ellipse;whiteSpace=wrap;html=1;fillColor=#f8cecc;strokeColor=#b85450;" parent="nGekux-X6Rqf-3TaoWdD-1" vertex="1">
          <mxGeometry x="25" y="165" width="120" height="80" as="geometry" />
        </mxCell>
        <mxCell id="nGekux-X6Rqf-3TaoWdD-39" value="7. Update Merchant Status" style="ellipse;whiteSpace=wrap;html=1;fillColor=#f8cecc;strokeColor=#b85450;" parent="nGekux-X6Rqf-3TaoWdD-1" vertex="1">
          <mxGeometry x="25" y="365" width="120" height="80" as="geometry" />
        </mxCell>
        <mxCell id="nGekux-X6Rqf-3TaoWdD-40" value="14. Get available claim groups" style="ellipse;whiteSpace=wrap;html=1;fillColor=#f8cecc;strokeColor=#b85450;" parent="nGekux-X6Rqf-3TaoWdD-1" vertex="1">
          <mxGeometry x="25" y="665" width="120" height="80" as="geometry" />
        </mxCell>
        <mxCell id="nGekux-X6Rqf-3TaoWdD-41" value="15. Insert company claim group" style="ellipse;whiteSpace=wrap;html=1;fillColor=#f8cecc;strokeColor=#b85450;" parent="nGekux-X6Rqf-3TaoWdD-1" vertex="1">
          <mxGeometry x="30" y="810" width="120" height="80" as="geometry" />
        </mxCell>
        <mxCell id="nGekux-X6Rqf-3TaoWdD-43" value="10. Get Company by Merchant ID" style="ellipse;whiteSpace=wrap;html=1;fillColor=#e1d5e7;strokeColor=#9673a6;" parent="nGekux-X6Rqf-3TaoWdD-1" vertex="1">
          <mxGeometry x="432.5" y="290" width="120" height="80" as="geometry" />
        </mxCell>
        <mxCell id="nGekux-X6Rqf-3TaoWdD-45" value="4. Regenerate merchant access key" style="ellipse;whiteSpace=wrap;html=1;fillColor=#d5e8d4;strokeColor=#82b366;" parent="nGekux-X6Rqf-3TaoWdD-1" vertex="1">
          <mxGeometry x="840" y="200" width="120" height="80" as="geometry" />
        </mxCell>
        <mxCell id="nGekux-X6Rqf-3TaoWdD-46" value="8. Insert new Company Merchant mapping table" style="ellipse;whiteSpace=wrap;html=1;fillColor=#d5e8d4;strokeColor=#82b366;" parent="nGekux-X6Rqf-3TaoWdD-1" vertex="1">
          <mxGeometry x="840" y="70" width="120" height="80" as="geometry" />
        </mxCell>
        <mxCell id="nGekux-X6Rqf-3TaoWdD-47" value="17. Retrieve Merchant&#39;s QR Transaction Details by Date" style="ellipse;whiteSpace=wrap;html=1;fillColor=#d5e8d4;strokeColor=#82b366;" parent="nGekux-X6Rqf-3TaoWdD-1" vertex="1">
          <mxGeometry x="905" y="770" width="120" height="80" as="geometry" />
        </mxCell>
        <mxCell id="nGekux-X6Rqf-3TaoWdD-48" value="4. Regenerate merchant access key" style="ellipse;whiteSpace=wrap;html=1;fillColor=#d5e8d4;strokeColor=#82b366;" parent="nGekux-X6Rqf-3TaoWdD-1" vertex="1">
          <mxGeometry x="840" y="200" width="120" height="80" as="geometry" />
        </mxCell>
        <mxCell id="nGekux-X6Rqf-3TaoWdD-49" value="4. Regenerate merchant access key" style="ellipse;whiteSpace=wrap;html=1;fillColor=#dae8fc;strokeColor=#6c8ebf;" parent="nGekux-X6Rqf-3TaoWdD-1" vertex="1">
          <mxGeometry x="840" y="200" width="120" height="80" as="geometry" />
        </mxCell>
        <mxCell id="nGekux-X6Rqf-3TaoWdD-50" value="8. Insert new Company Merchant mapping table" style="ellipse;whiteSpace=wrap;html=1;fillColor=#dae8fc;strokeColor=#6c8ebf;" parent="nGekux-X6Rqf-3TaoWdD-1" vertex="1">
          <mxGeometry x="840" y="70" width="120" height="80" as="geometry" />
        </mxCell>
        <mxCell id="nGekux-X6Rqf-3TaoWdD-51" value="7. Update Merchant Status" style="ellipse;whiteSpace=wrap;html=1;fillColor=#f8cecc;strokeColor=#b85450;" parent="nGekux-X6Rqf-3TaoWdD-1" vertex="1">
          <mxGeometry x="25" y="365" width="120" height="80" as="geometry" />
        </mxCell>
        <mxCell id="nGekux-X6Rqf-3TaoWdD-52" value="Delete Company to ensure BBO side and our side sync&amp;nbsp;&lt;div&gt;&lt;font style=&quot;font-size: 8px;&quot;&gt;(for cases where BBO side failed, they will call to delete)&lt;/font&gt;&lt;/div&gt;" style="ellipse;whiteSpace=wrap;html=1;fillColor=#f8cecc;strokeColor=#b85450;" parent="nGekux-X6Rqf-3TaoWdD-1" vertex="1">
          <mxGeometry x="25" y="265" width="120" height="80" as="geometry" />
        </mxCell>
        <mxCell id="nGekux-X6Rqf-3TaoWdD-55" value="6. Update Company Status &lt;font style=&quot;font-size: 8px;&quot;&gt;(To call when&amp;nbsp; #3 Returns 426 Duplicate)&lt;/font&gt;" style="ellipse;whiteSpace=wrap;html=1;fillColor=#f8cecc;strokeColor=#b85450;" parent="nGekux-X6Rqf-3TaoWdD-1" vertex="1">
          <mxGeometry x="25" y="165" width="120" height="80" as="geometry" />
        </mxCell>
        <mxCell id="nGekux-X6Rqf-3TaoWdD-56" value="12. Activate Company-Merchant&amp;nbsp;" style="ellipse;whiteSpace=wrap;html=1;fillColor=#f8cecc;strokeColor=#b85450;" parent="nGekux-X6Rqf-3TaoWdD-1" vertex="1">
          <mxGeometry x="25" y="970" width="120" height="80" as="geometry" />
        </mxCell>
        <mxCell id="nGekux-X6Rqf-3TaoWdD-63" value="2.&amp;nbsp;Get EInvoice Company Claim Keys" style="ellipse;whiteSpace=wrap;html=1;fillColor=#d5e8d4;strokeColor=#82b366;" parent="nGekux-X6Rqf-3TaoWdD-1" vertex="1">
          <mxGeometry x="1025" y="650" width="110" height="70" as="geometry" />
        </mxCell>
        <mxCell id="SCqIdg4vzEgn9paINNBF-1" value="&lt;h1&gt;&lt;font color=&quot;#990000&quot;&gt;Back Office&lt;/font&gt;&lt;/h1&gt;" style="text;html=1;align=center;verticalAlign=middle;whiteSpace=wrap;rounded=0;" parent="nGekux-X6Rqf-3TaoWdD-1" vertex="1">
          <mxGeometry x="10" y="10" width="150" height="30" as="geometry" />
        </mxCell>
        <mxCell id="SCqIdg4vzEgn9paINNBF-2" value="&lt;h1&gt;&lt;font color=&quot;#000099&quot;&gt;Merchant Portal&lt;/font&gt;&lt;/h1&gt;" style="text;html=1;align=center;verticalAlign=middle;whiteSpace=wrap;rounded=0;" parent="nGekux-X6Rqf-3TaoWdD-1" vertex="1">
          <mxGeometry x="807.5" y="10" width="185" height="30" as="geometry" />
        </mxCell>
        <mxCell id="PsZeGKl3intxKkmF5Zg3-3" value="&lt;pre class=&quot;body-param__example microlight&quot; style=&quot;box-sizing: border-box; font-family: monospace; font-size: 12px; max-height: 400px; min-height: 6em; overflow: auto; background: rgb(51, 51, 51); border-radius: 4px; hyphens: auto; margin: 0px; padding: 0.5em; white-space: pre-wrap; word-break: break-word; overflow-wrap: break-word; font-weight: 600; font-style: normal; font-variant-ligatures: normal; font-variant-caps: normal; letter-spacing: normal; orphans: 2; text-align: start; text-indent: 0px; text-transform: none; widows: 2; word-spacing: 0px; -webkit-text-stroke-width: 0px; text-decoration-thickness: initial; text-decoration-style: initial; text-decoration-color: initial; display: block;&quot;&gt;&lt;code class=&quot;language-json&quot; style=&quot;box-sizing: border-box; font-family: Consolas, monaco, monospace; font-size: 1em; word-break: break-all; white-space: pre;&quot;&gt;&lt;span style=&quot;color: white; box-sizing: inherit;&quot;&gt;{&lt;br&gt;&lt;/span&gt;&lt;span style=&quot;color: white; box-sizing: inherit;&quot;&gt;  &lt;/span&gt;&lt;span class=&quot;hljs-attr&quot; style=&quot;box-sizing: inherit;&quot;&gt;&lt;font color=&quot;#ffffff&quot;&gt;&quot;&lt;/font&gt;&lt;font color=&quot;#ffff00&quot;&gt;displayId&lt;/font&gt;&lt;font color=&quot;#ffffff&quot;&gt;&quot;&lt;/font&gt;&lt;/span&gt;&lt;span style=&quot;color: white; box-sizing: inherit;&quot;&gt;: &lt;/span&gt;&lt;span style=&quot;color: rgb(162, 252, 162); box-sizing: inherit;&quot;&gt;&quot;string&quot;&lt;/span&gt;&lt;span style=&quot;color: white; box-sizing: inherit;&quot;&gt;,&lt;br&gt;&lt;/span&gt;&lt;span style=&quot;color: white; box-sizing: inherit;&quot;&gt;  &lt;/span&gt;&lt;span class=&quot;hljs-attr&quot; style=&quot;color: white; box-sizing: inherit;&quot;&gt;&quot;&lt;/span&gt;&lt;span class=&quot;hljs-attr&quot; style=&quot;box-sizing: inherit;&quot;&gt;&lt;font color=&quot;#ffff00&quot;&gt;isActive&lt;/font&gt;&lt;/span&gt;&lt;span class=&quot;hljs-attr&quot; style=&quot;color: white; box-sizing: inherit;&quot;&gt;&quot;&lt;/span&gt;&lt;span style=&quot;color: white; box-sizing: inherit;&quot;&gt;: &lt;/span&gt;&lt;span style=&quot;color: rgb(252, 194, 140); box-sizing: inherit;&quot;&gt;true&lt;/span&gt;&lt;span style=&quot;color: white; box-sizing: inherit;&quot;&gt;&lt;br&gt;&lt;/span&gt;&lt;font color=&quot;#ffffff&quot;&gt;}&lt;/font&gt;&lt;/code&gt;&lt;/pre&gt;" style="text;whiteSpace=wrap;html=1;" parent="nGekux-X6Rqf-3TaoWdD-1" vertex="1">
          <mxGeometry x="180" y="165" width="170" height="85" as="geometry" />
        </mxCell>
        <mxCell id="PsZeGKl3intxKkmF5Zg3-4" value="&lt;pre class=&quot;body-param__example microlight&quot; style=&quot;box-sizing: border-box; font-family: monospace; font-size: 12px; max-height: 400px; min-height: 6em; overflow: auto; background: rgb(51, 51, 51); border-radius: 4px; hyphens: auto; margin: 0px; padding: 0.5em; white-space: pre-wrap; word-break: break-word; overflow-wrap: break-word; font-weight: 600; font-style: normal; font-variant-ligatures: normal; font-variant-caps: normal; letter-spacing: normal; orphans: 2; text-align: start; text-indent: 0px; text-transform: none; widows: 2; word-spacing: 0px; -webkit-text-stroke-width: 0px; text-decoration-thickness: initial; text-decoration-style: initial; text-decoration-color: initial; display: block;&quot;&gt;&lt;code class=&quot;language-json&quot; style=&quot;box-sizing: border-box; font-family: Consolas, monaco, monospace; font-size: 1em; word-break: break-all; white-space: pre;&quot;&gt;&lt;span style=&quot;color: white; box-sizing: inherit;&quot;&gt;{&lt;br&gt;&lt;/span&gt;&lt;span style=&quot;color: white; box-sizing: inherit;&quot;&gt;  &lt;/span&gt;&lt;span class=&quot;hljs-attr&quot; style=&quot;box-sizing: inherit;&quot;&gt;&lt;font color=&quot;#ffffff&quot;&gt;&quot;&lt;/font&gt;&lt;font color=&quot;#ffff00&quot;&gt;displayId&lt;/font&gt;&lt;font color=&quot;#ffffff&quot;&gt;&quot;&lt;/font&gt;&lt;/span&gt;&lt;span style=&quot;color: white; box-sizing: inherit;&quot;&gt;: &lt;/span&gt;&lt;span style=&quot;color: rgb(162, 252, 162); box-sizing: inherit;&quot;&gt;&quot;string&quot;&lt;/span&gt;&lt;span style=&quot;color: white; box-sizing: inherit;&quot;&gt;,&lt;br&gt;&lt;/span&gt;&lt;span style=&quot;color: white; box-sizing: inherit;&quot;&gt;  &lt;/span&gt;&lt;span class=&quot;hljs-attr&quot; style=&quot;color: white; box-sizing: inherit;&quot;&gt;&quot;&lt;/span&gt;&lt;span class=&quot;hljs-attr&quot; style=&quot;box-sizing: inherit;&quot;&gt;&lt;font color=&quot;#ffff00&quot;&gt;name&lt;/font&gt;&lt;/span&gt;&lt;span class=&quot;hljs-attr&quot; style=&quot;color: white; box-sizing: inherit;&quot;&gt;&quot;&lt;/span&gt;&lt;span style=&quot;color: white; box-sizing: inherit;&quot;&gt;: &lt;/span&gt;&lt;span style=&quot;color: rgb(162, 252, 162); box-sizing: inherit;&quot;&gt;&quot;string&quot;&lt;/span&gt;&lt;span style=&quot;color: white; box-sizing: inherit;&quot;&gt;,&lt;br&gt;&lt;/span&gt;&lt;span style=&quot;color: white; box-sizing: inherit;&quot;&gt;  &lt;/span&gt;&lt;span class=&quot;hljs-attr&quot; style=&quot;color: white; box-sizing: inherit;&quot;&gt;&quot;&lt;/span&gt;&lt;span class=&quot;hljs-attr&quot; style=&quot;box-sizing: inherit;&quot;&gt;&lt;font color=&quot;#ffff00&quot;&gt;isActive&lt;/font&gt;&lt;/span&gt;&lt;span class=&quot;hljs-attr&quot; style=&quot;color: white; box-sizing: inherit;&quot;&gt;&quot;&lt;/span&gt;&lt;span style=&quot;color: white; box-sizing: inherit;&quot;&gt;: &lt;/span&gt;&lt;span style=&quot;color: rgb(252, 194, 140); box-sizing: inherit;&quot;&gt;true&lt;/span&gt;&lt;span style=&quot;color: white; box-sizing: inherit;&quot;&gt;&lt;br&gt;&lt;/span&gt;&lt;font color=&quot;#ffffff&quot;&gt;}&lt;/font&gt;&lt;/code&gt;&lt;/pre&gt;" style="text;whiteSpace=wrap;html=1;" parent="nGekux-X6Rqf-3TaoWdD-1" vertex="1">
          <mxGeometry x="180" y="50" width="170" height="90" as="geometry" />
        </mxCell>
        <mxCell id="PsZeGKl3intxKkmF5Zg3-5" value="&lt;pre class=&quot;body-param__example microlight&quot; style=&quot;box-sizing: border-box; font-family: monospace; font-size: 12px; max-height: 400px; min-height: 6em; overflow: auto; background: rgb(51, 51, 51); border-radius: 4px; hyphens: auto; margin: 0px; padding: 0.5em; white-space: pre-wrap; word-break: break-word; overflow-wrap: break-word; font-weight: 600; font-style: normal; font-variant-ligatures: normal; font-variant-caps: normal; letter-spacing: normal; orphans: 2; text-align: start; text-indent: 0px; text-transform: none; widows: 2; word-spacing: 0px; -webkit-text-stroke-width: 0px; text-decoration-thickness: initial; text-decoration-style: initial; text-decoration-color: initial; display: block;&quot;&gt;&lt;code class=&quot;language-json&quot; style=&quot;box-sizing: border-box; font-family: Consolas, monaco, monospace; font-size: 1em; word-break: break-all; white-space: pre;&quot;&gt;&lt;span style=&quot;color: white; box-sizing: inherit;&quot;&gt;{&lt;br&gt;&lt;/span&gt;&lt;span style=&quot;color: white; box-sizing: inherit;&quot;&gt;  &lt;/span&gt;&lt;span class=&quot;hljs-attr&quot; style=&quot;box-sizing: inherit;&quot;&gt;&lt;font color=&quot;#ffffff&quot;&gt;&quot;&lt;/font&gt;&lt;font color=&quot;#ffff00&quot;&gt;displayId&lt;/font&gt;&lt;font color=&quot;#ffffff&quot;&gt;&quot;&lt;/font&gt;&lt;/span&gt;&lt;span style=&quot;color: white; box-sizing: inherit;&quot;&gt;: &lt;/span&gt;&lt;span style=&quot;color: rgb(162, 252, 162); box-sizing: inherit;&quot;&gt;&quot;string&quot;&lt;/span&gt;&lt;span style=&quot;color: white; box-sizing: inherit;&quot;&gt;&lt;br&gt;&lt;/span&gt;&lt;font color=&quot;#ffffff&quot;&gt;}&lt;/font&gt;&lt;/code&gt;&lt;/pre&gt;" style="text;whiteSpace=wrap;html=1;" parent="nGekux-X6Rqf-3TaoWdD-1" vertex="1">
          <mxGeometry x="180" y="265" width="170" height="75" as="geometry" />
        </mxCell>
        <mxCell id="PsZeGKl3intxKkmF5Zg3-6" value="&lt;pre class=&quot;body-param__example microlight&quot; style=&quot;box-sizing: border-box; font-family: monospace; font-size: 12px; max-height: 400px; min-height: 6em; overflow: auto; background: rgb(51, 51, 51); border-radius: 4px; hyphens: auto; margin: 0px; padding: 0.5em; white-space: pre-wrap; word-break: break-word; overflow-wrap: break-word; font-weight: 600; font-style: normal; font-variant-ligatures: normal; font-variant-caps: normal; letter-spacing: normal; orphans: 2; text-align: start; text-indent: 0px; text-transform: none; widows: 2; word-spacing: 0px; -webkit-text-stroke-width: 0px; text-decoration-thickness: initial; text-decoration-style: initial; text-decoration-color: initial; display: block;&quot;&gt;&lt;code class=&quot;language-json&quot; style=&quot;box-sizing: border-box; font-family: Consolas, monaco, monospace; font-size: 1em; word-break: break-all; white-space: pre;&quot;&gt;&lt;span style=&quot;color: white; box-sizing: inherit;&quot;&gt;{&lt;br&gt;&lt;/span&gt;&lt;span style=&quot;color: white; box-sizing: inherit;&quot;&gt;  &lt;/span&gt;&lt;span class=&quot;hljs-attr&quot; style=&quot;box-sizing: inherit;&quot;&gt;&lt;font color=&quot;#ffffff&quot;&gt;&quot;&lt;/font&gt;&lt;font color=&quot;#ffff00&quot;&gt;merchantId&lt;/font&gt;&lt;font color=&quot;#ffffff&quot;&gt;&quot;&lt;/font&gt;&lt;/span&gt;&lt;span style=&quot;color: white; box-sizing: inherit;&quot;&gt;: &lt;/span&gt;&lt;span style=&quot;color: rgb(162, 252, 162); box-sizing: inherit;&quot;&gt;&quot;string&quot;&lt;/span&gt;&lt;span style=&quot;color: white; box-sizing: inherit;&quot;&gt;,&lt;br&gt;&lt;/span&gt;&lt;span style=&quot;color: white; box-sizing: inherit;&quot;&gt;  &lt;/span&gt;&lt;span class=&quot;hljs-attr&quot; style=&quot;color: white; box-sizing: inherit;&quot;&gt;&quot;&lt;/span&gt;&lt;span class=&quot;hljs-attr&quot; style=&quot;box-sizing: inherit;&quot;&gt;&lt;font color=&quot;#ffff00&quot;&gt;companyId&lt;/font&gt;&lt;/span&gt;&lt;span class=&quot;hljs-attr&quot; style=&quot;color: white; box-sizing: inherit;&quot;&gt;&quot;&lt;/span&gt;&lt;span style=&quot;color: white; box-sizing: inherit;&quot;&gt;: &lt;/span&gt;&lt;span style=&quot;color: rgb(162, 252, 162); box-sizing: inherit;&quot;&gt;&quot;string&quot;&lt;/span&gt;&lt;span style=&quot;color: white; box-sizing: inherit;&quot;&gt;&lt;br&gt;&lt;/span&gt;&lt;font color=&quot;#ffffff&quot;&gt;}&lt;/font&gt;&lt;/code&gt;&lt;/pre&gt;" style="text;whiteSpace=wrap;html=1;" parent="nGekux-X6Rqf-3TaoWdD-1" vertex="1">
          <mxGeometry x="160" y="975" width="180" height="80" as="geometry" />
        </mxCell>
        <mxCell id="XTCWxMRXrfHmCuFfmF85-9" style="edgeStyle=orthogonalEdgeStyle;rounded=0;orthogonalLoop=1;jettySize=auto;html=1;entryX=0;entryY=0.5;entryDx=0;entryDy=0;sketch=1;curveFitting=1;jiggle=2;fillColor=#f8cecc;strokeColor=#b85450;" parent="nGekux-X6Rqf-3TaoWdD-1" source="PsZeGKl3intxKkmF5Zg3-7" target="XTCWxMRXrfHmCuFfmF85-7" edge="1">
          <mxGeometry relative="1" as="geometry" />
        </mxCell>
        <mxCell id="PsZeGKl3intxKkmF5Zg3-7" value="&lt;pre class=&quot;body-param__example microlight&quot; style=&quot;box-sizing: border-box; font-family: monospace; font-size: 12px; max-height: 400px; min-height: 6em; overflow: auto; background: rgb(51, 51, 51); border-radius: 4px; hyphens: auto; margin: 0px; padding: 0.5em; white-space: pre-wrap; word-break: break-word; overflow-wrap: break-word; font-weight: 600; font-style: normal; font-variant-ligatures: normal; font-variant-caps: normal; letter-spacing: normal; orphans: 2; text-align: start; text-indent: 0px; text-transform: none; widows: 2; word-spacing: 0px; -webkit-text-stroke-width: 0px; text-decoration-thickness: initial; text-decoration-style: initial; text-decoration-color: initial; display: block;&quot;&gt;&lt;code class=&quot;language-json&quot; style=&quot;box-sizing: border-box; font-family: Consolas, monaco, monospace; font-size: 1em; word-break: break-all; white-space: pre;&quot;&gt;&lt;span style=&quot;color: white; box-sizing: inherit;&quot;&gt;{&lt;br&gt;&lt;/span&gt;&lt;span style=&quot;color: white; box-sizing: inherit;&quot;&gt;  &lt;/span&gt;&lt;span class=&quot;hljs-attr&quot; style=&quot;box-sizing: inherit;&quot;&gt;&lt;font color=&quot;#ffffff&quot;&gt;&quot;&lt;/font&gt;&lt;font color=&quot;#ffff00&quot;&gt;merchantId&lt;/font&gt;&lt;font color=&quot;#ffffff&quot;&gt;&quot;&lt;/font&gt;&lt;/span&gt;&lt;span style=&quot;color: white; box-sizing: inherit;&quot;&gt;: &lt;/span&gt;&lt;span style=&quot;color: rgb(162, 252, 162); box-sizing: inherit;&quot;&gt;&quot;string&quot;&lt;/span&gt;&lt;span style=&quot;color: white; box-sizing: inherit;&quot;&gt;,&lt;br&gt;&lt;/span&gt;&lt;span style=&quot;color: white; box-sizing: inherit;&quot;&gt;  &lt;/span&gt;&lt;span class=&quot;hljs-attr&quot; style=&quot;color: white; box-sizing: inherit;&quot;&gt;&quot;companyId&quot;&lt;/span&gt;&lt;span style=&quot;color: white; box-sizing: inherit;&quot;&gt;: &lt;/span&gt;&lt;span style=&quot;color: rgb(162, 252, 162); box-sizing: inherit;&quot;&gt;&quot;string&quot;&lt;/span&gt;&lt;span style=&quot;color: white; box-sizing: inherit;&quot;&gt;&lt;br&gt;&lt;/span&gt;&lt;font color=&quot;#ffffff&quot;&gt;}&lt;/font&gt;&lt;/code&gt;&lt;/pre&gt;" style="text;whiteSpace=wrap;html=1;" parent="nGekux-X6Rqf-3TaoWdD-1" vertex="1">
          <mxGeometry x="180" y="565" width="180" height="80" as="geometry" />
        </mxCell>
        <mxCell id="XTCWxMRXrfHmCuFfmF85-8" style="edgeStyle=orthogonalEdgeStyle;rounded=0;orthogonalLoop=1;jettySize=auto;html=1;entryX=0;entryY=0.5;entryDx=0;entryDy=0;sketch=1;curveFitting=1;jiggle=2;fillColor=#f8cecc;strokeColor=#b85450;" parent="nGekux-X6Rqf-3TaoWdD-1" source="PsZeGKl3intxKkmF5Zg3-8" target="XTCWxMRXrfHmCuFfmF85-7" edge="1">
          <mxGeometry relative="1" as="geometry" />
        </mxCell>
        <mxCell id="PsZeGKl3intxKkmF5Zg3-8" value="&lt;pre class=&quot;body-param__example microlight&quot; style=&quot;box-sizing: border-box; font-family: monospace; font-size: 12px; max-height: 400px; min-height: 6em; overflow: auto; background: rgb(51, 51, 51); border-radius: 4px; hyphens: auto; margin: 0px; padding: 0.5em; white-space: pre-wrap; word-break: break-word; overflow-wrap: break-word; font-weight: 600; font-style: normal; font-variant-ligatures: normal; font-variant-caps: normal; letter-spacing: normal; orphans: 2; text-align: start; text-indent: 0px; text-transform: none; widows: 2; word-spacing: 0px; -webkit-text-stroke-width: 0px; text-decoration-thickness: initial; text-decoration-style: initial; text-decoration-color: initial; display: block;&quot;&gt;&lt;code class=&quot;language-json&quot; style=&quot;box-sizing: border-box; font-family: Consolas, monaco, monospace; font-size: 1em; word-break: break-all; white-space: pre;&quot;&gt;&lt;span style=&quot;color: white; box-sizing: inherit;&quot;&gt;{&lt;br&gt;&lt;/span&gt;&lt;span style=&quot;color: white; box-sizing: inherit;&quot;&gt;  &lt;/span&gt;&lt;span class=&quot;hljs-attr&quot; style=&quot;color: white; box-sizing: inherit;&quot;&gt;&quot;&lt;/span&gt;&lt;span class=&quot;hljs-attr&quot; style=&quot;box-sizing: inherit;&quot;&gt;&lt;font color=&quot;#ffff00&quot;&gt;merchantId&lt;/font&gt;&lt;/span&gt;&lt;span class=&quot;hljs-attr&quot; style=&quot;color: white; box-sizing: inherit;&quot;&gt;&quot;&lt;/span&gt;&lt;span style=&quot;color: white; box-sizing: inherit;&quot;&gt;: &lt;/span&gt;&lt;span style=&quot;color: rgb(162, 252, 162); box-sizing: inherit;&quot;&gt;&quot;string&quot;&lt;/span&gt;&lt;span style=&quot;color: white; box-sizing: inherit;&quot;&gt;,&lt;br&gt;&lt;/span&gt;&lt;span style=&quot;color: white; box-sizing: inherit;&quot;&gt;  &lt;/span&gt;&lt;span class=&quot;hljs-attr&quot; style=&quot;color: white; box-sizing: inherit;&quot;&gt;&quot;companyId&quot;&lt;/span&gt;&lt;span style=&quot;color: white; box-sizing: inherit;&quot;&gt;: &lt;/span&gt;&lt;span style=&quot;color: rgb(162, 252, 162); box-sizing: inherit;&quot;&gt;&quot;string&quot;&lt;/span&gt;&lt;span style=&quot;color: white; box-sizing: inherit;&quot;&gt;,&lt;br&gt;&lt;/span&gt;&lt;span style=&quot;color: white; box-sizing: inherit;&quot;&gt;  &lt;/span&gt;&lt;span class=&quot;hljs-attr&quot; style=&quot;box-sizing: inherit;&quot;&gt;&lt;font color=&quot;#ffffff&quot;&gt;&quot;&lt;/font&gt;&lt;font color=&quot;#ffff00&quot;&gt;isActive&lt;/font&gt;&lt;font color=&quot;#ffffff&quot;&gt;&quot;&lt;/font&gt;&lt;/span&gt;&lt;span style=&quot;color: white; box-sizing: inherit;&quot;&gt;: &lt;/span&gt;&lt;span style=&quot;color: rgb(252, 194, 140); box-sizing: inherit;&quot;&gt;true&lt;/span&gt;&lt;span style=&quot;color: white; box-sizing: inherit;&quot;&gt;&lt;br&gt;&lt;/span&gt;&lt;font color=&quot;#ffffff&quot;&gt;}&lt;/font&gt;&lt;/code&gt;&lt;/pre&gt;" style="text;whiteSpace=wrap;html=1;" parent="nGekux-X6Rqf-3TaoWdD-1" vertex="1">
          <mxGeometry x="180" y="355" width="180" height="90" as="geometry" />
        </mxCell>
        <mxCell id="PsZeGKl3intxKkmF5Zg3-9" value="&lt;pre class=&quot;body-param__example microlight&quot; style=&quot;box-sizing: border-box; font-family: monospace; font-size: 12px; max-height: 400px; min-height: 6em; overflow: auto; background: rgb(51, 51, 51); border-radius: 4px; hyphens: auto; margin: 0px; padding: 0.5em; white-space: pre-wrap; word-break: break-word; overflow-wrap: break-word; font-weight: 600; font-style: normal; font-variant-ligatures: normal; font-variant-caps: normal; letter-spacing: normal; orphans: 2; text-align: start; text-indent: 0px; text-transform: none; widows: 2; word-spacing: 0px; -webkit-text-stroke-width: 0px; text-decoration-thickness: initial; text-decoration-style: initial; text-decoration-color: initial; display: block;&quot;&gt;&lt;code class=&quot;language-json&quot; style=&quot;box-sizing: border-box; font-family: Consolas, monaco, monospace; font-size: 1em; word-break: break-all; white-space: pre;&quot;&gt;&lt;span style=&quot;color: white; box-sizing: inherit;&quot;&gt;{&lt;br&gt;&lt;/span&gt;&lt;span style=&quot;color: white; box-sizing: inherit;&quot;&gt;  &lt;/span&gt;&lt;span class=&quot;hljs-attr&quot; style=&quot;box-sizing: inherit;&quot;&gt;&lt;font color=&quot;#ffffff&quot;&gt;&quot;&lt;/font&gt;&lt;font color=&quot;#ffff00&quot;&gt;merchantId&lt;/font&gt;&lt;font color=&quot;#ffffff&quot;&gt;&quot;&lt;/font&gt;&lt;/span&gt;&lt;span style=&quot;color: white; box-sizing: inherit;&quot;&gt;: &lt;/span&gt;&lt;span style=&quot;color: rgb(162, 252, 162); box-sizing: inherit;&quot;&gt;&quot;string&quot;&lt;/span&gt;&lt;span style=&quot;color: white; box-sizing: inherit;&quot;&gt;,&lt;br&gt;&lt;/span&gt;&lt;span style=&quot;color: white; box-sizing: inherit;&quot;&gt;  &lt;/span&gt;&lt;span class=&quot;hljs-attr&quot; style=&quot;color: white; box-sizing: inherit;&quot;&gt;&quot;&lt;/span&gt;&lt;span class=&quot;hljs-attr&quot; style=&quot;box-sizing: inherit;&quot;&gt;&lt;font color=&quot;#ffff00&quot;&gt;isSuspend&lt;/font&gt;&lt;/span&gt;&lt;span class=&quot;hljs-attr&quot; style=&quot;color: white; box-sizing: inherit;&quot;&gt;&quot;&lt;/span&gt;&lt;span style=&quot;color: white; box-sizing: inherit;&quot;&gt;: &lt;/span&gt;&lt;span style=&quot;color: rgb(252, 194, 140); box-sizing: inherit;&quot;&gt;true&lt;/span&gt;&lt;span style=&quot;color: white; box-sizing: inherit;&quot;&gt;&lt;br&gt;&lt;/span&gt;&lt;font color=&quot;#ffffff&quot;&gt;}&lt;/font&gt;&lt;/code&gt;&lt;/pre&gt;" style="text;whiteSpace=wrap;html=1;" parent="nGekux-X6Rqf-3TaoWdD-1" vertex="1">
          <mxGeometry x="160" y="1075" width="180" height="80" as="geometry" />
        </mxCell>
        <mxCell id="PsZeGKl3intxKkmF5Zg3-10" value="&lt;pre class=&quot;body-param__example microlight&quot; style=&quot;box-sizing: border-box; font-family: monospace; font-size: 12px; max-height: 400px; min-height: 6em; overflow: auto; background: rgb(51, 51, 51); border-radius: 4px; hyphens: auto; margin: 0px; padding: 0.5em; white-space: pre-wrap; word-break: break-word; overflow-wrap: break-word; font-weight: 600; font-style: normal; font-variant-ligatures: normal; font-variant-caps: normal; letter-spacing: normal; orphans: 2; text-align: start; text-indent: 0px; text-transform: none; widows: 2; word-spacing: 0px; -webkit-text-stroke-width: 0px; text-decoration-thickness: initial; text-decoration-style: initial; text-decoration-color: initial; display: block;&quot;&gt;&lt;code class=&quot;language-json&quot; style=&quot;box-sizing: border-box; font-family: Consolas, monaco, monospace; font-size: 1em; word-break: break-all; white-space: pre;&quot;&gt;&lt;span style=&quot;color: white; box-sizing: inherit;&quot;&gt;{&lt;br&gt;&lt;/span&gt;&lt;span style=&quot;color: white; box-sizing: inherit;&quot;&gt;  &lt;/span&gt;&lt;span class=&quot;hljs-attr&quot; style=&quot;box-sizing: inherit;&quot;&gt;&lt;font color=&quot;#ffffff&quot;&gt;&quot;&lt;/font&gt;&lt;font color=&quot;#ffff00&quot;&gt;displayId&lt;/font&gt;&lt;font color=&quot;#ffffff&quot;&gt;&quot;&lt;/font&gt;&lt;/span&gt;&lt;span style=&quot;color: white; box-sizing: inherit;&quot;&gt;: &lt;/span&gt;&lt;span style=&quot;color: rgb(162, 252, 162); box-sizing: inherit;&quot;&gt;&quot;string&quot;&lt;/span&gt;&lt;span style=&quot;color: white; box-sizing: inherit;&quot;&gt;&lt;br&gt;&lt;/span&gt;&lt;font color=&quot;#ffffff&quot;&gt;}&lt;/font&gt;&lt;/code&gt;&lt;/pre&gt;" style="text;whiteSpace=wrap;html=1;" parent="nGekux-X6Rqf-3TaoWdD-1" vertex="1">
          <mxGeometry x="180" y="465" width="170" height="80" as="geometry" />
        </mxCell>
        <mxCell id="PsZeGKl3intxKkmF5Zg3-11" value="&lt;pre class=&quot;body-param__example microlight&quot; style=&quot;box-sizing: border-box; font-family: monospace; font-size: 12px; max-height: 400px; min-height: 6em; overflow: auto; background: rgb(51, 51, 51); border-radius: 4px; hyphens: auto; margin: 0px; padding: 0.5em; white-space: pre-wrap; word-break: break-word; overflow-wrap: break-word; font-weight: 600; font-style: normal; font-variant-ligatures: normal; font-variant-caps: normal; letter-spacing: normal; orphans: 2; text-align: start; text-indent: 0px; text-transform: none; widows: 2; word-spacing: 0px; -webkit-text-stroke-width: 0px; text-decoration-thickness: initial; text-decoration-style: initial; text-decoration-color: initial; display: block;&quot;&gt;&lt;code class=&quot;language-json&quot; style=&quot;box-sizing: border-box; font-family: Consolas, monaco, monospace; font-size: 1em; word-break: break-all; white-space: pre;&quot;&gt;&lt;span style=&quot;color: white; box-sizing: inherit;&quot;&gt;{&lt;br&gt;&lt;/span&gt;&lt;span style=&quot;color: white; box-sizing: inherit;&quot;&gt;  &lt;/span&gt;&lt;span class=&quot;hljs-attr&quot; style=&quot;box-sizing: inherit;&quot;&gt;&lt;font color=&quot;#ffffff&quot;&gt;&quot;&lt;/font&gt;&lt;font color=&quot;#ffff00&quot;&gt;companyMerchantClaimGroups&lt;/font&gt;&lt;font color=&quot;#ffffff&quot;&gt;&quot;&lt;/font&gt;&lt;/span&gt;&lt;span style=&quot;color: white; box-sizing: inherit;&quot;&gt;: [&lt;br&gt;&lt;/span&gt;&lt;font color=&quot;#ffffff&quot;&gt;    {&lt;br&gt;&lt;/font&gt;&lt;span style=&quot;color: white; box-sizing: inherit;&quot;&gt;      &lt;/span&gt;&lt;span class=&quot;hljs-attr&quot; style=&quot;color: white; box-sizing: inherit;&quot;&gt;&quot;&lt;/span&gt;&lt;span class=&quot;hljs-attr&quot; style=&quot;box-sizing: inherit;&quot;&gt;&lt;font color=&quot;#ffff00&quot;&gt;companyId&lt;/font&gt;&lt;/span&gt;&lt;span class=&quot;hljs-attr&quot; style=&quot;color: white; box-sizing: inherit;&quot;&gt;&quot;&lt;/span&gt;&lt;span style=&quot;color: white; box-sizing: inherit;&quot;&gt;: &lt;/span&gt;&lt;span style=&quot;color: rgb(162, 252, 162); box-sizing: inherit;&quot;&gt;&quot;string&quot;&lt;/span&gt;&lt;span style=&quot;color: white; box-sizing: inherit;&quot;&gt;,&lt;br&gt;&lt;/span&gt;&lt;span style=&quot;color: white; box-sizing: inherit;&quot;&gt;      &lt;/span&gt;&lt;span class=&quot;hljs-attr&quot; style=&quot;color: white; box-sizing: inherit;&quot;&gt;&quot;&lt;/span&gt;&lt;span class=&quot;hljs-attr&quot; style=&quot;box-sizing: inherit;&quot;&gt;&lt;font color=&quot;#ffff00&quot;&gt;merchantId&lt;/font&gt;&lt;/span&gt;&lt;span class=&quot;hljs-attr&quot; style=&quot;color: white; box-sizing: inherit;&quot;&gt;&quot;&lt;/span&gt;&lt;span style=&quot;color: white; box-sizing: inherit;&quot;&gt;: &lt;/span&gt;&lt;span style=&quot;color: rgb(162, 252, 162); box-sizing: inherit;&quot;&gt;&quot;string&quot;&lt;/span&gt;&lt;span style=&quot;color: white; box-sizing: inherit;&quot;&gt;,&lt;br&gt;&lt;/span&gt;&lt;span style=&quot;color: white; box-sizing: inherit;&quot;&gt;      &lt;/span&gt;&lt;span class=&quot;hljs-attr&quot; style=&quot;color: white; box-sizing: inherit;&quot;&gt;&quot;&lt;/span&gt;&lt;span class=&quot;hljs-attr&quot; style=&quot;box-sizing: inherit;&quot;&gt;&lt;font color=&quot;#ffff00&quot;&gt;claimGroupId&lt;/font&gt;&lt;/span&gt;&lt;span class=&quot;hljs-attr&quot; style=&quot;color: white; box-sizing: inherit;&quot;&gt;&quot;&lt;/span&gt;&lt;span style=&quot;color: white; box-sizing: inherit;&quot;&gt;: &lt;/span&gt;&lt;span style=&quot;color: rgb(211, 99, 99); box-sizing: inherit;&quot;&gt;0&lt;/span&gt;&lt;span style=&quot;color: white; box-sizing: inherit;&quot;&gt;,&lt;br&gt;&lt;/span&gt;&lt;span style=&quot;color: white; box-sizing: inherit;&quot;&gt;      &lt;/span&gt;&lt;span class=&quot;hljs-attr&quot; style=&quot;color: white; box-sizing: inherit;&quot;&gt;&quot;&lt;/span&gt;&lt;span class=&quot;hljs-attr&quot; style=&quot;box-sizing: inherit;&quot;&gt;&lt;font color=&quot;#ffff00&quot;&gt;isActive&lt;/font&gt;&lt;/span&gt;&lt;span class=&quot;hljs-attr&quot; style=&quot;color: white; box-sizing: inherit;&quot;&gt;&quot;&lt;/span&gt;&lt;span style=&quot;color: white; box-sizing: inherit;&quot;&gt;: &lt;/span&gt;&lt;span style=&quot;color: rgb(252, 194, 140); box-sizing: inherit;&quot;&gt;true&lt;/span&gt;&lt;span style=&quot;color: white; box-sizing: inherit;&quot;&gt;&lt;br&gt;&lt;/span&gt;&lt;font color=&quot;#ffffff&quot;&gt;    }&lt;br&gt;  ]&lt;br&gt;}&lt;/font&gt;&lt;/code&gt;&lt;/pre&gt;" style="text;whiteSpace=wrap;html=1;" parent="nGekux-X6Rqf-3TaoWdD-1" vertex="1">
          <mxGeometry x="155" y="770" width="235" height="160" as="geometry" />
        </mxCell>
        <mxCell id="PsZeGKl3intxKkmF5Zg3-12" value="&lt;pre class=&quot;body-param__example microlight&quot; style=&quot;box-sizing: border-box; font-family: monospace; font-size: 12px; max-height: 400px; min-height: 6em; overflow: auto; background: rgb(51, 51, 51); border-radius: 4px; hyphens: auto; margin: 0px; padding: 0.5em; white-space: pre-wrap; word-break: break-word; overflow-wrap: break-word; font-weight: 600; font-style: normal; font-variant-ligatures: normal; font-variant-caps: normal; letter-spacing: normal; orphans: 2; text-align: start; text-indent: 0px; text-transform: none; widows: 2; word-spacing: 0px; -webkit-text-stroke-width: 0px; text-decoration-thickness: initial; text-decoration-style: initial; text-decoration-color: initial; display: block;&quot;&gt;&lt;code class=&quot;language-json&quot; style=&quot;box-sizing: border-box; font-family: Consolas, monaco, monospace; font-size: 1em; word-break: break-all; white-space: pre;&quot;&gt;&lt;span style=&quot;color: white; box-sizing: inherit;&quot;&gt;{&lt;br&gt;&lt;/span&gt;&lt;span style=&quot;color: white; box-sizing: inherit;&quot;&gt;  &lt;/span&gt;&lt;span class=&quot;hljs-attr&quot; style=&quot;box-sizing: inherit;&quot;&gt;&lt;font color=&quot;#ffffff&quot;&gt;&quot;&lt;/font&gt;&lt;font color=&quot;#ffff00&quot;&gt;merchantId&lt;/font&gt;&lt;font color=&quot;#ffffff&quot;&gt;&quot;&lt;/font&gt;&lt;/span&gt;&lt;span style=&quot;color: white; box-sizing: inherit;&quot;&gt;: &lt;/span&gt;&lt;span style=&quot;color: rgb(162, 252, 162); box-sizing: inherit;&quot;&gt;&quot;string&quot;&lt;/span&gt;&lt;span style=&quot;color: white; box-sizing: inherit;&quot;&gt;&lt;br&gt;&lt;/span&gt;&lt;font color=&quot;#ffffff&quot;&gt;}&lt;/font&gt;&lt;/code&gt;&lt;/pre&gt;" style="text;whiteSpace=wrap;html=1;" parent="nGekux-X6Rqf-3TaoWdD-1" vertex="1">
          <mxGeometry x="597.5" y="290" width="175" height="80" as="geometry" />
        </mxCell>
        <mxCell id="PsZeGKl3intxKkmF5Zg3-16" value="&lt;font color=&quot;#ffffff&quot;&gt;&lt;b&gt;N/A&lt;/b&gt;&lt;/font&gt;" style="text;html=1;align=center;verticalAlign=middle;whiteSpace=wrap;rounded=1;fillColor=#333333;" parent="nGekux-X6Rqf-3TaoWdD-1" vertex="1">
          <mxGeometry x="190" y="690" width="60" height="30" as="geometry" />
        </mxCell>
        <mxCell id="XTCWxMRXrfHmCuFfmF85-0" value="" style="group" parent="nGekux-X6Rqf-3TaoWdD-1" vertex="1" connectable="0">
          <mxGeometry x="400" y="165" width="185" height="96" as="geometry" />
        </mxCell>
        <mxCell id="nGekux-X6Rqf-3TaoWdD-44" value="11. Get Claims by Company-Merchant ID&lt;div&gt;(Group By Company, Claim Group, Claim)&lt;/div&gt;" style="ellipse;whiteSpace=wrap;html=1;fillColor=#e1d5e7;strokeColor=#9673a6;" parent="XTCWxMRXrfHmCuFfmF85-0" vertex="1">
          <mxGeometry x="30.5" width="120" height="80" as="geometry" />
        </mxCell>
        <mxCell id="nGekux-X6Rqf-3TaoWdD-66" value="GetTpiClaimDetailsByMerchant" style="rounded=0;whiteSpace=wrap;html=1;fillColor=#dae8fc;strokeColor=#6c8ebf;" parent="XTCWxMRXrfHmCuFfmF85-0" vertex="1">
          <mxGeometry y="76" width="185" height="20" as="geometry" />
        </mxCell>
        <mxCell id="XTCWxMRXrfHmCuFfmF85-1" value="" style="group" parent="nGekux-X6Rqf-3TaoWdD-1" vertex="1" connectable="0">
          <mxGeometry x="415" y="55" width="150" height="90" as="geometry" />
        </mxCell>
        <mxCell id="nGekux-X6Rqf-3TaoWdD-42" value="5. Get Claims by Merchant ID&lt;div&gt;(Group By Company, Claim Group, Claim)&lt;/div&gt;" style="ellipse;whiteSpace=wrap;html=1;fillColor=#e1d5e7;strokeColor=#9673a6;" parent="XTCWxMRXrfHmCuFfmF85-1" vertex="1">
          <mxGeometry x="13" width="120" height="80" as="geometry" />
        </mxCell>
        <mxCell id="nGekux-X6Rqf-3TaoWdD-60" value="GetClaimKeysByMerchantId" style="rounded=0;whiteSpace=wrap;html=1;fillColor=#dae8fc;strokeColor=#6c8ebf;" parent="XTCWxMRXrfHmCuFfmF85-1" vertex="1">
          <mxGeometry y="70" width="150" height="20" as="geometry" />
        </mxCell>
        <mxCell id="XTCWxMRXrfHmCuFfmF85-2" value="&lt;pre class=&quot;body-param__example microlight&quot; style=&quot;box-sizing: border-box; font-family: monospace; font-size: 12px; max-height: 400px; min-height: 6em; overflow: auto; background: rgb(51, 51, 51); border-radius: 4px; hyphens: auto; margin: 0px; padding: 0.5em; white-space: pre-wrap; word-break: break-word; overflow-wrap: break-word; font-weight: 600; font-style: normal; font-variant-ligatures: normal; font-variant-caps: normal; letter-spacing: normal; orphans: 2; text-align: start; text-indent: 0px; text-transform: none; widows: 2; word-spacing: 0px; -webkit-text-stroke-width: 0px; text-decoration-thickness: initial; text-decoration-style: initial; text-decoration-color: initial; display: block;&quot;&gt;&lt;code class=&quot;language-json&quot; style=&quot;box-sizing: border-box; font-family: Consolas, monaco, monospace; font-size: 1em; word-break: break-all; white-space: pre;&quot;&gt;&lt;span style=&quot;color: white; box-sizing: inherit;&quot;&gt;{&lt;br&gt;&lt;/span&gt;&lt;span style=&quot;color: white; box-sizing: inherit;&quot;&gt;  &lt;/span&gt;&lt;span class=&quot;hljs-attr&quot; style=&quot;box-sizing: inherit;&quot;&gt;&lt;font color=&quot;#ffffff&quot;&gt;&quot;&lt;/font&gt;&lt;font color=&quot;#ffff00&quot;&gt;merchantId&lt;/font&gt;&lt;font color=&quot;#ffffff&quot;&gt;&quot;&lt;/font&gt;&lt;/span&gt;&lt;span style=&quot;color: white; box-sizing: inherit;&quot;&gt;: &lt;/span&gt;&lt;span style=&quot;color: rgb(162, 252, 162); box-sizing: inherit;&quot;&gt;&quot;string&quot;&lt;/span&gt;&lt;span style=&quot;color: white; box-sizing: inherit;&quot;&gt;&lt;br&gt;&lt;/span&gt;&lt;font color=&quot;#ffffff&quot;&gt;}&lt;/font&gt;&lt;/code&gt;&lt;/pre&gt;" style="text;whiteSpace=wrap;html=1;" parent="nGekux-X6Rqf-3TaoWdD-1" vertex="1">
          <mxGeometry x="597.5" y="50" width="175" height="80" as="geometry" />
        </mxCell>
        <mxCell id="XTCWxMRXrfHmCuFfmF85-4" value="&lt;pre class=&quot;body-param__example microlight&quot; style=&quot;box-sizing: border-box; font-family: monospace; font-size: 12px; max-height: 400px; min-height: 6em; overflow: auto; background: rgb(51, 51, 51); border-radius: 4px; hyphens: auto; margin: 0px; padding: 0.5em; white-space: pre-wrap; word-break: break-word; overflow-wrap: break-word; font-weight: 600; font-style: normal; font-variant-ligatures: normal; font-variant-caps: normal; letter-spacing: normal; orphans: 2; text-align: start; text-indent: 0px; text-transform: none; widows: 2; word-spacing: 0px; -webkit-text-stroke-width: 0px; text-decoration-thickness: initial; text-decoration-style: initial; text-decoration-color: initial; display: block;&quot;&gt;&lt;code class=&quot;language-json&quot; style=&quot;box-sizing: border-box; font-family: Consolas, monaco, monospace; font-size: 1em; word-break: break-all; white-space: pre;&quot;&gt;&lt;span style=&quot;color: white; box-sizing: inherit;&quot;&gt;{&lt;br&gt;&lt;/span&gt;&lt;span style=&quot;color: white; box-sizing: inherit;&quot;&gt;  &lt;/span&gt;&lt;span class=&quot;hljs-attr&quot; style=&quot;box-sizing: inherit;&quot;&gt;&lt;font color=&quot;#ffffff&quot;&gt;&quot;&lt;/font&gt;&lt;font color=&quot;#ffff00&quot;&gt;merchantId&lt;/font&gt;&lt;font color=&quot;#ffffff&quot;&gt;&quot;&lt;/font&gt;&lt;span style=&quot;color: white; font-size: 1em; box-sizing: inherit;&quot;&gt;: &lt;/span&gt;&lt;span style=&quot;color: rgb(162, 252, 162); font-size: 1em; box-sizing: inherit;&quot;&gt;&quot;string&quot;&lt;/span&gt;&lt;span style=&quot;color: white; font-size: 1em; box-sizing: inherit;&quot;&gt;,&lt;/span&gt;&lt;font color=&quot;#ffffff&quot;&gt;&lt;br&gt;&lt;/font&gt;&lt;/span&gt;&lt;span style=&quot;color: white; box-sizing: inherit;&quot;&gt;  &lt;/span&gt;&lt;span class=&quot;hljs-attr&quot; style=&quot;color: white; box-sizing: inherit;&quot;&gt;&quot;&lt;/span&gt;&lt;span class=&quot;hljs-attr&quot; style=&quot;box-sizing: inherit;&quot;&gt;&lt;font color=&quot;#ffff00&quot;&gt;companyId&lt;/font&gt;&lt;/span&gt;&lt;span class=&quot;hljs-attr&quot; style=&quot;color: white; box-sizing: inherit;&quot;&gt;&quot;&lt;/span&gt;&lt;span style=&quot;color: white; box-sizing: inherit;&quot;&gt;: &lt;/span&gt;&lt;span style=&quot;color: rgb(162, 252, 162); box-sizing: inherit;&quot;&gt;&quot;string&quot;&lt;/span&gt;&lt;span style=&quot;color: white; box-sizing: inherit;&quot;&gt;&lt;br&gt;&lt;/span&gt;&lt;font color=&quot;#ffffff&quot;&gt;}&lt;/font&gt;&lt;/code&gt;&lt;/pre&gt;" style="text;whiteSpace=wrap;html=1;" parent="nGekux-X6Rqf-3TaoWdD-1" vertex="1">
          <mxGeometry x="597.5" y="161" width="210" height="100" as="geometry" />
        </mxCell>
        <mxCell id="XTCWxMRXrfHmCuFfmF85-5" value="&lt;pre class=&quot;body-param__example microlight&quot; style=&quot;box-sizing: border-box; font-family: monospace; font-size: 12px; max-height: 400px; min-height: 6em; overflow: auto; background: rgb(51, 51, 51); border-radius: 4px; hyphens: auto; margin: 0px; padding: 0.5em; white-space: pre-wrap; word-break: break-word; overflow-wrap: break-word; font-weight: 600; font-style: normal; font-variant-ligatures: normal; font-variant-caps: normal; letter-spacing: normal; orphans: 2; text-align: start; text-indent: 0px; text-transform: none; widows: 2; word-spacing: 0px; -webkit-text-stroke-width: 0px; text-decoration-thickness: initial; text-decoration-style: initial; text-decoration-color: initial; display: block;&quot;&gt;&lt;code class=&quot;language-json&quot; style=&quot;box-sizing: border-box; font-family: Consolas, monaco, monospace; font-size: 1em; word-break: break-all; white-space: pre;&quot;&gt;&lt;span style=&quot;color: white; box-sizing: inherit;&quot;&gt;{&lt;br&gt;&lt;/span&gt;&lt;span style=&quot;color: white; box-sizing: inherit;&quot;&gt;  &lt;/span&gt;&lt;span class=&quot;hljs-attr&quot; style=&quot;color: white; box-sizing: inherit;&quot;&gt;&quot;&lt;/span&gt;&lt;span class=&quot;hljs-attr&quot; style=&quot;box-sizing: inherit;&quot;&gt;&lt;font color=&quot;#ffff00&quot;&gt;companyId&lt;/font&gt;&lt;/span&gt;&lt;span class=&quot;hljs-attr&quot; style=&quot;color: white; box-sizing: inherit;&quot;&gt;&quot;&lt;/span&gt;&lt;span style=&quot;color: white; box-sizing: inherit;&quot;&gt;: &lt;/span&gt;&lt;span style=&quot;color: rgb(162, 252, 162); box-sizing: inherit;&quot;&gt;&quot;string&quot;&lt;/span&gt;&lt;span style=&quot;color: white; box-sizing: inherit;&quot;&gt;,&lt;br&gt;&lt;/span&gt;&lt;span style=&quot;color: white; box-sizing: inherit;&quot;&gt;  &lt;/span&gt;&lt;span class=&quot;hljs-attr&quot; style=&quot;box-sizing: inherit;&quot;&gt;&lt;font color=&quot;#ffffff&quot;&gt;&quot;&lt;/font&gt;&lt;font color=&quot;#ffff00&quot;&gt;merchantId&lt;/font&gt;&lt;font color=&quot;#ffffff&quot;&gt;&quot;&lt;/font&gt;&lt;/span&gt;&lt;span style=&quot;color: white; box-sizing: inherit;&quot;&gt;: &lt;/span&gt;&lt;span style=&quot;color: rgb(162, 252, 162); box-sizing: inherit;&quot;&gt;&quot;string&quot;&lt;/span&gt;&lt;span style=&quot;color: white; box-sizing: inherit;&quot;&gt;,&lt;br&gt;&lt;/span&gt;&lt;span style=&quot;color: white; box-sizing: inherit;&quot;&gt;  &lt;/span&gt;&lt;span class=&quot;hljs-attr&quot; style=&quot;color: white; box-sizing: inherit;&quot;&gt;&quot;&lt;/span&gt;&lt;span class=&quot;hljs-attr&quot; style=&quot;box-sizing: inherit;&quot;&gt;&lt;font color=&quot;#ffff00&quot;&gt;merchantName&lt;/font&gt;&lt;/span&gt;&lt;span class=&quot;hljs-attr&quot; style=&quot;color: white; box-sizing: inherit;&quot;&gt;&quot;&lt;/span&gt;&lt;span style=&quot;color: white; box-sizing: inherit;&quot;&gt;: &lt;/span&gt;&lt;span style=&quot;color: rgb(162, 252, 162); box-sizing: inherit;&quot;&gt;&quot;string&quot;&lt;/span&gt;&lt;span style=&quot;color: white; box-sizing: inherit;&quot;&gt;,&lt;br&gt;&lt;/span&gt;&lt;span style=&quot;color: white; box-sizing: inherit;&quot;&gt;  &lt;/span&gt;&lt;span class=&quot;hljs-attr&quot; style=&quot;color: white; box-sizing: inherit;&quot;&gt;&quot;&lt;/span&gt;&lt;span class=&quot;hljs-attr&quot; style=&quot;box-sizing: inherit;&quot;&gt;&lt;font color=&quot;#ffff00&quot;&gt;isActive&lt;/font&gt;&lt;/span&gt;&lt;span class=&quot;hljs-attr&quot; style=&quot;color: white; box-sizing: inherit;&quot;&gt;&quot;&lt;/span&gt;&lt;span style=&quot;color: white; box-sizing: inherit;&quot;&gt;: &lt;/span&gt;&lt;span style=&quot;color: rgb(252, 194, 140); box-sizing: inherit;&quot;&gt;true&lt;/span&gt;&lt;span style=&quot;color: white; box-sizing: inherit;&quot;&gt;,&lt;br&gt;&lt;/span&gt;&lt;span style=&quot;color: white; box-sizing: inherit;&quot;&gt;  &lt;/span&gt;&lt;span class=&quot;hljs-attr&quot; style=&quot;color: white; box-sizing: inherit;&quot;&gt;&quot;&lt;/span&gt;&lt;span class=&quot;hljs-attr&quot; style=&quot;box-sizing: inherit;&quot;&gt;&lt;font color=&quot;#ffff00&quot;&gt;isSuspend&lt;/font&gt;&lt;/span&gt;&lt;span class=&quot;hljs-attr&quot; style=&quot;color: white; box-sizing: inherit;&quot;&gt;&quot;&lt;/span&gt;&lt;span style=&quot;color: white; box-sizing: inherit;&quot;&gt;: &lt;/span&gt;&lt;span style=&quot;color: rgb(252, 194, 140); box-sizing: inherit;&quot;&gt;true&lt;/span&gt;&lt;span style=&quot;color: white; box-sizing: inherit;&quot;&gt;&lt;br&gt;&lt;/span&gt;&lt;font color=&quot;#ffffff&quot;&gt;}&lt;/font&gt;&lt;/code&gt;&lt;/pre&gt;" style="text;whiteSpace=wrap;html=1;" parent="nGekux-X6Rqf-3TaoWdD-1" vertex="1">
          <mxGeometry x="1000" y="40" width="220" height="140" as="geometry" />
        </mxCell>
        <mxCell id="XTCWxMRXrfHmCuFfmF85-6" value="&lt;pre class=&quot;body-param__example microlight&quot; style=&quot;box-sizing: border-box; font-family: monospace; font-size: 12px; max-height: 400px; min-height: 6em; overflow: auto; background: rgb(51, 51, 51); border-radius: 4px; hyphens: auto; margin: 0px; padding: 0.5em; white-space: pre-wrap; word-break: break-word; overflow-wrap: break-word; font-weight: 600; font-style: normal; font-variant-ligatures: normal; font-variant-caps: normal; letter-spacing: normal; orphans: 2; text-align: start; text-indent: 0px; text-transform: none; widows: 2; word-spacing: 0px; -webkit-text-stroke-width: 0px; text-decoration-thickness: initial; text-decoration-style: initial; text-decoration-color: initial; display: block;&quot;&gt;&lt;code class=&quot;language-json&quot; style=&quot;box-sizing: border-box; font-family: Consolas, monaco, monospace; font-size: 1em; word-break: break-all; white-space: pre;&quot;&gt;&lt;span style=&quot;color: white; box-sizing: inherit;&quot;&gt;{&lt;br&gt;&lt;/span&gt;&lt;span style=&quot;color: white; box-sizing: inherit;&quot;&gt;  &lt;/span&gt;&lt;span class=&quot;hljs-attr&quot; style=&quot;box-sizing: inherit;&quot;&gt;&lt;font color=&quot;#ffffff&quot;&gt;&quot;&lt;/font&gt;&lt;font color=&quot;#ffff00&quot;&gt;merchantId&lt;/font&gt;&lt;font color=&quot;#ffffff&quot;&gt;&quot;&lt;/font&gt;&lt;/span&gt;&lt;span style=&quot;color: white; box-sizing: inherit;&quot;&gt;: &lt;/span&gt;&lt;span style=&quot;color: rgb(162, 252, 162); box-sizing: inherit;&quot;&gt;&quot;string&quot;&lt;/span&gt;&lt;span style=&quot;color: white; box-sizing: inherit;&quot;&gt;,&lt;br&gt;&lt;/span&gt;&lt;span style=&quot;color: white; box-sizing: inherit;&quot;&gt;  &lt;/span&gt;&lt;span class=&quot;hljs-attr&quot; style=&quot;color: white; box-sizing: inherit;&quot;&gt;&quot;&lt;/span&gt;&lt;span class=&quot;hljs-attr&quot; style=&quot;box-sizing: inherit;&quot;&gt;&lt;font color=&quot;#ffff00&quot;&gt;companyId&lt;/font&gt;&lt;/span&gt;&lt;span class=&quot;hljs-attr&quot; style=&quot;color: white; box-sizing: inherit;&quot;&gt;&quot;&lt;/span&gt;&lt;span style=&quot;color: white; box-sizing: inherit;&quot;&gt;: &lt;/span&gt;&lt;span style=&quot;color: rgb(162, 252, 162); box-sizing: inherit;&quot;&gt;&quot;string&quot;&lt;/span&gt;&lt;span style=&quot;color: white; box-sizing: inherit;&quot;&gt;&lt;br&gt;&lt;/span&gt;&lt;font color=&quot;#ffffff&quot;&gt;}&lt;/font&gt;&lt;/code&gt;&lt;/pre&gt;" style="text;whiteSpace=wrap;html=1;" parent="nGekux-X6Rqf-3TaoWdD-1" vertex="1">
          <mxGeometry x="1005" y="190" width="210" height="100" as="geometry" />
        </mxCell>
        <mxCell id="XTCWxMRXrfHmCuFfmF85-7" value="CompanyId is optional" style="rounded=1;whiteSpace=wrap;html=1;sketch=1;curveFitting=1;jiggle=2;strokeColor=#b85450;fillColor=#f8cecc;" parent="nGekux-X6Rqf-3TaoWdD-1" vertex="1">
          <mxGeometry x="480" y="465" width="90" height="55" as="geometry" />
        </mxCell>
        <mxCell id="jlAbe9bzsYJkP6ITSsS7-1" value="&lt;pre class=&quot;body-param__example microlight&quot; style=&quot;box-sizing: border-box; font-family: monospace; font-size: 12px; max-height: 400px; min-height: 6em; overflow: auto; background: rgb(51, 51, 51); border-radius: 4px; hyphens: auto; margin: 0px; padding: 0.5em; white-space: pre-wrap; word-break: break-word; overflow-wrap: break-word; font-weight: 600; font-style: normal; font-variant-ligatures: normal; font-variant-caps: normal; letter-spacing: normal; orphans: 2; text-align: start; text-indent: 0px; text-transform: none; widows: 2; word-spacing: 0px; -webkit-text-stroke-width: 0px; text-decoration-thickness: initial; text-decoration-style: initial; text-decoration-color: initial; display: block;&quot;&gt;&lt;code class=&quot;language-json&quot; style=&quot;box-sizing: border-box; font-family: Consolas, monaco, monospace; font-size: 1em; word-break: break-all; white-space: pre;&quot;&gt;&lt;span style=&quot;color: white; box-sizing: inherit;&quot;&gt;{&lt;br&gt;&lt;/span&gt;&lt;span style=&quot;color: white; box-sizing: inherit;&quot;&gt;  &lt;/span&gt;&lt;span class=&quot;hljs-attr&quot; style=&quot;box-sizing: inherit;&quot;&gt;&lt;font color=&quot;#ffffff&quot;&gt;&quot;&lt;/font&gt;&lt;font color=&quot;#ffff00&quot;&gt;clientID&lt;/font&gt;&lt;font color=&quot;#ffffff&quot;&gt;&quot;&lt;/font&gt;&lt;/span&gt;&lt;span style=&quot;color: white; box-sizing: inherit;&quot;&gt;: &lt;/span&gt;&lt;span style=&quot;color: rgb(162, 252, 162); box-sizing: inherit;&quot;&gt;&quot;string&quot;&lt;/span&gt;&lt;span style=&quot;color: white; box-sizing: inherit;&quot;&gt;,&lt;br&gt;&lt;/span&gt;&lt;span style=&quot;color: white; box-sizing: inherit;&quot;&gt;  &lt;/span&gt;&lt;span class=&quot;hljs-attr&quot; style=&quot;color: white; box-sizing: inherit;&quot;&gt;&quot;&lt;/span&gt;&lt;span class=&quot;hljs-attr&quot; style=&quot;box-sizing: inherit;&quot;&gt;&lt;font color=&quot;#ffff00&quot;&gt;clientSecret&lt;/font&gt;&lt;/span&gt;&lt;span class=&quot;hljs-attr&quot; style=&quot;color: white; box-sizing: inherit;&quot;&gt;&quot;&lt;/span&gt;&lt;span style=&quot;color: white; box-sizing: inherit;&quot;&gt;: &lt;/span&gt;&lt;span style=&quot;color: rgb(162, 252, 162); box-sizing: inherit;&quot;&gt;&quot;string&quot;&lt;/span&gt;&lt;span style=&quot;color: white; box-sizing: inherit;&quot;&gt;,&lt;br&gt;&lt;/span&gt;&lt;span style=&quot;color: white; box-sizing: inherit;&quot;&gt;  &lt;/span&gt;&lt;span class=&quot;hljs-attr&quot; style=&quot;color: white; box-sizing: inherit;&quot;&gt;&quot;&lt;/span&gt;&lt;span class=&quot;hljs-attr&quot; style=&quot;box-sizing: inherit;&quot;&gt;&lt;font color=&quot;#ffff00&quot;&gt;merchantAccessKey&lt;/font&gt;&lt;/span&gt;&lt;span class=&quot;hljs-attr&quot; style=&quot;color: white; box-sizing: inherit;&quot;&gt;&quot;&lt;/span&gt;&lt;span style=&quot;color: white; box-sizing: inherit;&quot;&gt;: &lt;/span&gt;&lt;span style=&quot;color: rgb(162, 252, 162); box-sizing: inherit;&quot;&gt;&quot;string&quot;&lt;/span&gt;&lt;span style=&quot;color: white; box-sizing: inherit;&quot;&gt;&lt;br&gt;&lt;/span&gt;&lt;font color=&quot;#ffffff&quot;&gt;}&lt;/font&gt;&lt;/code&gt;&lt;/pre&gt;" style="text;whiteSpace=wrap;html=1;" parent="nGekux-X6Rqf-3TaoWdD-1" vertex="1">
          <mxGeometry x="1120" y="565" width="250" height="110" as="geometry" />
        </mxCell>
        <mxCell id="SwxwpDrSkr6fzXkiPKxa-0" value="&lt;pre class=&quot;body-param__example microlight&quot; style=&quot;box-sizing: border-box; font-family: monospace; font-size: 12px; max-height: 400px; min-height: 6em; overflow: auto; background: rgb(51, 51, 51); border-radius: 4px; hyphens: auto; margin: 0px; padding: 0.5em; white-space: pre-wrap; word-break: break-word; overflow-wrap: break-word; font-weight: 600; font-style: normal; font-variant-ligatures: normal; font-variant-caps: normal; letter-spacing: normal; orphans: 2; text-align: start; text-indent: 0px; text-transform: none; widows: 2; word-spacing: 0px; -webkit-text-stroke-width: 0px; text-decoration-thickness: initial; text-decoration-style: initial; text-decoration-color: initial; display: block;&quot;&gt;&lt;code class=&quot;language-json&quot; style=&quot;box-sizing: border-box; font-family: Consolas, monaco, monospace; font-size: 1em; word-break: break-all; white-space: pre;&quot;&gt;&lt;span style=&quot;color: white; box-sizing: inherit;&quot;&gt;{&lt;br&gt;&lt;/span&gt;&lt;span style=&quot;color: white; box-sizing: inherit;&quot;&gt;  &lt;/span&gt;&lt;span class=&quot;hljs-attr&quot; style=&quot;box-sizing: inherit;&quot;&gt;&lt;font color=&quot;#ffffff&quot;&gt;&quot;&lt;/font&gt;&lt;font color=&quot;#ffff00&quot;&gt;reportDate&lt;/font&gt;&lt;font color=&quot;#ffffff&quot;&gt;&quot;&lt;/font&gt;&lt;/span&gt;&lt;span style=&quot;color: white; box-sizing: inherit;&quot;&gt;: &lt;/span&gt;&lt;span style=&quot;color: rgb(162, 252, 162); box-sizing: inherit;&quot;&gt;&quot;2025-04-14T07:27:01.825Z&quot;&lt;/span&gt;&lt;span style=&quot;color: white; box-sizing: inherit;&quot;&gt;,&lt;br&gt;&lt;/span&gt;&lt;span style=&quot;color: white; box-sizing: inherit;&quot;&gt;  &lt;/span&gt;&lt;span class=&quot;hljs-attr&quot; style=&quot;color: white; box-sizing: inherit;&quot;&gt;&quot;&lt;/span&gt;&lt;span class=&quot;hljs-attr&quot; style=&quot;box-sizing: inherit;&quot;&gt;&lt;font color=&quot;#ffff00&quot;&gt;index&lt;/font&gt;&lt;/span&gt;&lt;span class=&quot;hljs-attr&quot; style=&quot;color: white; box-sizing: inherit;&quot;&gt;&quot;&lt;/span&gt;&lt;span style=&quot;color: white; box-sizing: inherit;&quot;&gt;: &lt;/span&gt;&lt;span style=&quot;color: rgb(211, 99, 99); box-sizing: inherit;&quot;&gt;0&lt;/span&gt;&lt;span style=&quot;color: white; box-sizing: inherit;&quot;&gt;&lt;br&gt;&lt;/span&gt;&lt;font color=&quot;#ffffff&quot;&gt;}&lt;/font&gt;&lt;/code&gt;&lt;/pre&gt;" style="text;whiteSpace=wrap;html=1;" parent="nGekux-X6Rqf-3TaoWdD-1" vertex="1">
          <mxGeometry x="1040" y="770" width="330" height="100" as="geometry" />
        </mxCell>
      </root>
    </mxGraphModel>
  </diagram>
  <diagram id="gZ_WrU016Ow3BUV_Yj_f" name="Database Design">
    <mxGraphModel dx="1426" dy="755" grid="1" gridSize="10" guides="1" tooltips="1" connect="1" arrows="1" fold="1" page="1" pageScale="1" pageWidth="850" pageHeight="1100" math="0" shadow="0">
      <root>
        <mxCell id="0" />
        <mxCell id="1" parent="0" />
        <mxCell id="wZXRdP4raRspOarSkZMw-5" style="edgeStyle=orthogonalEdgeStyle;rounded=0;orthogonalLoop=1;jettySize=auto;html=1;entryX=0.5;entryY=0;entryDx=0;entryDy=0;" parent="1" source="xtw6Nv8I9Jb2jLJH42JO-13" target="wZXRdP4raRspOarSkZMw-1" edge="1">
          <mxGeometry relative="1" as="geometry" />
        </mxCell>
        <mxCell id="xtw6Nv8I9Jb2jLJH42JO-13" value="Company" style="swimlane;whiteSpace=wrap;html=1;startSize=23;" parent="1" vertex="1">
          <mxGeometry x="50" y="222" width="200" height="200" as="geometry" />
        </mxCell>
        <mxCell id="xtw6Nv8I9Jb2jLJH42JO-14" value="&amp;gt;Id&lt;div&gt;DisplayId&lt;/div&gt;&lt;div&gt;Name&lt;/div&gt;&lt;div&gt;ClientId&lt;/div&gt;&lt;div&gt;ClientSecret&lt;/div&gt;&lt;div&gt;&lt;div&gt;isActive&lt;/div&gt;&lt;/div&gt;&lt;div&gt;SubscriptionExpDate&lt;/div&gt;&lt;div&gt;DateCreated&lt;/div&gt;&lt;div&gt;DateModified&lt;/div&gt;" style="text;html=1;align=left;verticalAlign=top;resizable=0;points=[];autosize=1;strokeColor=none;fillColor=none;" parent="xtw6Nv8I9Jb2jLJH42JO-13" vertex="1">
          <mxGeometry x="10" y="43" width="130" height="130" as="geometry" />
        </mxCell>
        <mxCell id="xtw6Nv8I9Jb2jLJH42JO-18" value="Claim" style="swimlane;whiteSpace=wrap;html=1;startSize=23;" parent="1" vertex="1">
          <mxGeometry x="576" y="752" width="200" height="133" as="geometry" />
        </mxCell>
        <mxCell id="xtw6Nv8I9Jb2jLJH42JO-19" value="&amp;gt;ClaimId&lt;div&gt;&lt;div&gt;&lt;span style=&quot;background-color: initial;&quot;&gt;Key&lt;/span&gt;&lt;br&gt;&lt;/div&gt;&lt;div&gt;FunctionName&lt;/div&gt;&lt;div&gt;DateCreated&lt;/div&gt;&lt;div&gt;DateModified&lt;/div&gt;&lt;/div&gt;" style="text;html=1;align=left;verticalAlign=top;resizable=0;points=[];autosize=1;strokeColor=none;fillColor=none;" parent="xtw6Nv8I9Jb2jLJH42JO-18" vertex="1">
          <mxGeometry x="20" y="33" width="100" height="90" as="geometry" />
        </mxCell>
        <mxCell id="xtw6Nv8I9Jb2jLJH42JO-20" value="ClaimGroup" style="swimlane;whiteSpace=wrap;html=1;startSize=23;" parent="1" vertex="1">
          <mxGeometry x="301" y="752" width="200" height="130" as="geometry" />
        </mxCell>
        <mxCell id="xtw6Nv8I9Jb2jLJH42JO-21" value="&amp;gt;ClaimGroupId&lt;div&gt;&lt;span style=&quot;background-color: initial;&quot;&gt;Name&lt;/span&gt;&lt;br&gt;&lt;/div&gt;&lt;div&gt;Details&lt;/div&gt;&lt;div&gt;DateCreated&lt;/div&gt;&lt;div&gt;DateModified&lt;/div&gt;" style="text;html=1;align=left;verticalAlign=top;resizable=0;points=[];autosize=1;strokeColor=none;fillColor=none;" parent="xtw6Nv8I9Jb2jLJH42JO-20" vertex="1">
          <mxGeometry x="20" y="33" width="100" height="90" as="geometry" />
        </mxCell>
        <mxCell id="xtw6Nv8I9Jb2jLJH42JO-22" value="Company_Merchant" style="swimlane;whiteSpace=wrap;html=1;startSize=23;" parent="1" vertex="1">
          <mxGeometry x="305" y="222" width="200" height="203" as="geometry" />
        </mxCell>
        <mxCell id="xtw6Nv8I9Jb2jLJH42JO-23" value="&amp;gt;CompanyId&lt;div&gt;&amp;gt;MerchantId&lt;/div&gt;&lt;div&gt;MerchantAccessKey&lt;/div&gt;&lt;div&gt;MerchantName (required?)&lt;/div&gt;&lt;div&gt;isActive&lt;/div&gt;&lt;div&gt;isSuspend&lt;/div&gt;&lt;div&gt;dateActivated&lt;/div&gt;&lt;div&gt;DateCreated&lt;/div&gt;&lt;div&gt;DateModified&lt;/div&gt;" style="text;html=1;align=left;verticalAlign=top;resizable=0;points=[];autosize=1;strokeColor=none;fillColor=none;" parent="xtw6Nv8I9Jb2jLJH42JO-22" vertex="1">
          <mxGeometry x="20" y="33" width="170" height="140" as="geometry" />
        </mxCell>
        <mxCell id="1mzYRc6Maw7SgwASxkVD-5" style="edgeStyle=orthogonalEdgeStyle;rounded=0;orthogonalLoop=1;jettySize=auto;html=1;exitX=0.5;exitY=1;exitDx=0;exitDy=0;entryX=0.5;entryY=0;entryDx=0;entryDy=0;" parent="1" source="xtw6Nv8I9Jb2jLJH42JO-24" target="xtw6Nv8I9Jb2jLJH42JO-28" edge="1">
          <mxGeometry relative="1" as="geometry" />
        </mxCell>
        <mxCell id="xtw6Nv8I9Jb2jLJH42JO-24" value="CompanyMerchant_ClaimGroup" style="swimlane;whiteSpace=wrap;html=1;startSize=23;" parent="1" vertex="1">
          <mxGeometry x="560" y="223.5" width="200" height="200" as="geometry" />
        </mxCell>
        <mxCell id="xtw6Nv8I9Jb2jLJH42JO-25" value="&amp;gt;CompanyId&lt;div&gt;&amp;gt;MerchantId&lt;/div&gt;&lt;div&gt;&amp;gt;ClaimGroupId&lt;/div&gt;&lt;div&gt;isActive&lt;/div&gt;&lt;div&gt;DateCreated&lt;/div&gt;&lt;div&gt;DateModified&lt;/div&gt;" style="text;html=1;align=left;verticalAlign=top;resizable=0;points=[];autosize=1;strokeColor=none;fillColor=none;" parent="xtw6Nv8I9Jb2jLJH42JO-24" vertex="1">
          <mxGeometry x="20" y="33" width="100" height="100" as="geometry" />
        </mxCell>
        <mxCell id="1mzYRc6Maw7SgwASxkVD-2" style="edgeStyle=orthogonalEdgeStyle;rounded=0;orthogonalLoop=1;jettySize=auto;html=1;" parent="1" source="xtw6Nv8I9Jb2jLJH42JO-28" target="xtw6Nv8I9Jb2jLJH42JO-20" edge="1">
          <mxGeometry relative="1" as="geometry" />
        </mxCell>
        <mxCell id="1mzYRc6Maw7SgwASxkVD-3" style="edgeStyle=orthogonalEdgeStyle;rounded=0;orthogonalLoop=1;jettySize=auto;html=1;exitX=0.5;exitY=1;exitDx=0;exitDy=0;" parent="1" source="xtw6Nv8I9Jb2jLJH42JO-28" target="xtw6Nv8I9Jb2jLJH42JO-18" edge="1">
          <mxGeometry relative="1" as="geometry" />
        </mxCell>
        <mxCell id="xtw6Nv8I9Jb2jLJH42JO-28" value="ClaimGroup_Claim" style="swimlane;whiteSpace=wrap;html=1;startSize=23;" parent="1" vertex="1">
          <mxGeometry x="450" y="532" width="200" height="103" as="geometry" />
        </mxCell>
        <mxCell id="xtw6Nv8I9Jb2jLJH42JO-29" value="&amp;gt;ClaimGroupId&lt;div&gt;&amp;gt;ClaimId&lt;/div&gt;&lt;div&gt;DateCreated&lt;/div&gt;&lt;div&gt;DateModified&lt;/div&gt;" style="text;html=1;align=left;verticalAlign=top;resizable=0;points=[];autosize=1;strokeColor=none;fillColor=none;" parent="xtw6Nv8I9Jb2jLJH42JO-28" vertex="1">
          <mxGeometry x="20" y="33" width="100" height="70" as="geometry" />
        </mxCell>
        <mxCell id="1mzYRc6Maw7SgwASxkVD-1" value="&lt;div&gt;1. Active&lt;/div&gt;getClaimsKey&lt;div&gt;&lt;br&gt;&lt;/div&gt;&lt;div&gt;2. Date Activated&lt;/div&gt;&lt;div&gt;IsMerchantActivated&lt;/div&gt;&lt;div&gt;ActivateMerchantByAccessKey&lt;br&gt;&lt;div&gt;&lt;br&gt;&lt;/div&gt;&lt;/div&gt;" style="text;html=1;align=left;verticalAlign=middle;resizable=0;points=[];autosize=1;strokeColor=none;fillColor=none;" parent="1" vertex="1">
          <mxGeometry x="620" y="1000" width="190" height="110" as="geometry" />
        </mxCell>
        <mxCell id="wZXRdP4raRspOarSkZMw-4" style="edgeStyle=orthogonalEdgeStyle;rounded=0;orthogonalLoop=1;jettySize=auto;html=1;entryX=0;entryY=0.5;entryDx=0;entryDy=0;" parent="1" source="wZXRdP4raRspOarSkZMw-1" target="xtw6Nv8I9Jb2jLJH42JO-28" edge="1">
          <mxGeometry relative="1" as="geometry" />
        </mxCell>
        <mxCell id="wZXRdP4raRspOarSkZMw-1" value="Company_ClaimGroup (Not required until required)" style="swimlane;whiteSpace=wrap;html=1;startSize=40;" parent="1" vertex="1">
          <mxGeometry x="60" y="542" width="200" height="93" as="geometry" />
        </mxCell>
        <mxCell id="wZXRdP4raRspOarSkZMw-2" value="&amp;gt;CompanyId&lt;div&gt;&amp;gt;ClaimGroupId&lt;div&gt;&lt;br&gt;&lt;/div&gt;&lt;/div&gt;" style="text;html=1;align=left;verticalAlign=top;resizable=0;points=[];autosize=1;strokeColor=none;fillColor=none;" parent="wZXRdP4raRspOarSkZMw-1" vertex="1">
          <mxGeometry x="20" y="33" width="100" height="60" as="geometry" />
        </mxCell>
        <mxCell id="KBRN4sg6n8xd9F6weC8c-1" value="EInvoiceAuth" style="text;html=1;align=center;verticalAlign=middle;resizable=0;points=[];autosize=1;strokeColor=none;fillColor=none;fontStyle=1" parent="1" vertex="1">
          <mxGeometry x="365" y="170" width="90" height="30" as="geometry" />
        </mxCell>
      </root>
    </mxGraphModel>
  </diagram>
  <diagram id="qDe39XnaGU7Dge-4OJ3M" name="Page-5">
    <mxGraphModel dx="1426" dy="1855" grid="1" gridSize="10" guides="1" tooltips="1" connect="1" arrows="1" fold="1" page="1" pageScale="1" pageWidth="850" pageHeight="1100" math="0" shadow="0">
      <root>
        <mxCell id="0" />
        <mxCell id="1" parent="0" />
        <mxCell id="W_ZD4jACjCdO2egZUkfg-3" style="edgeStyle=orthogonalEdgeStyle;rounded=0;orthogonalLoop=1;jettySize=auto;html=1;exitX=0.5;exitY=1;exitDx=0;exitDy=0;entryX=0.5;entryY=0;entryDx=0;entryDy=0;" parent="1" source="W_ZD4jACjCdO2egZUkfg-1" target="W_ZD4jACjCdO2egZUkfg-2" edge="1">
          <mxGeometry relative="1" as="geometry" />
        </mxCell>
        <mxCell id="W_ZD4jACjCdO2egZUkfg-1" value="UpdateCompanyStatus&lt;div&gt;Controller&lt;/div&gt;&lt;div&gt;(string displayId, bool isActive)&lt;/div&gt;" style="rounded=1;whiteSpace=wrap;html=1;" parent="1" vertex="1">
          <mxGeometry x="72.5" y="-1090" width="175" height="60" as="geometry" />
        </mxCell>
        <mxCell id="W_ZD4jACjCdO2egZUkfg-6" style="edgeStyle=orthogonalEdgeStyle;rounded=0;orthogonalLoop=1;jettySize=auto;html=1;entryX=0;entryY=0.5;entryDx=0;entryDy=0;" parent="1" source="W_ZD4jACjCdO2egZUkfg-2" target="W_ZD4jACjCdO2egZUkfg-4" edge="1">
          <mxGeometry relative="1" as="geometry" />
        </mxCell>
        <mxCell id="W_ZD4jACjCdO2egZUkfg-2" value="mediator.Send(UpdateCompanyStatusDto)" style="rounded=1;whiteSpace=wrap;html=1;" parent="1" vertex="1">
          <mxGeometry x="42.5" y="-990" width="235" height="60" as="geometry" />
        </mxCell>
        <mxCell id="W_ZD4jACjCdO2egZUkfg-7" style="edgeStyle=orthogonalEdgeStyle;rounded=0;orthogonalLoop=1;jettySize=auto;html=1;exitX=0.5;exitY=1;exitDx=0;exitDy=0;" parent="1" source="W_ZD4jACjCdO2egZUkfg-4" target="W_ZD4jACjCdO2egZUkfg-5" edge="1">
          <mxGeometry relative="1" as="geometry" />
        </mxCell>
        <mxCell id="W_ZD4jACjCdO2egZUkfg-4" value="SelectByDisplayId&lt;br&gt;return CompanyModel" style="rounded=1;whiteSpace=wrap;html=1;" parent="1" vertex="1">
          <mxGeometry x="330" y="-990" width="120" height="60" as="geometry" />
        </mxCell>
        <mxCell id="W_ZD4jACjCdO2egZUkfg-5" value="Update(CompanyModel.Id)" style="rounded=1;whiteSpace=wrap;html=1;" parent="1" vertex="1">
          <mxGeometry x="315" y="-890" width="150" height="60" as="geometry" />
        </mxCell>
        <mxCell id="0xxngoaboluf5pN5r7Sg-1" value="GetCompanyMerchantInfo&lt;div&gt;Select * by MerchantId&lt;br&gt;if CompanyId included include in select&lt;/div&gt;" style="rounded=1;whiteSpace=wrap;html=1;" parent="1" vertex="1">
          <mxGeometry x="40" y="-900" width="180" height="90" as="geometry" />
        </mxCell>
        <mxCell id="01ePJZ-pB_lnq8yCR7ID-3" style="edgeStyle=orthogonalEdgeStyle;rounded=0;orthogonalLoop=1;jettySize=auto;html=1;entryX=0;entryY=0.5;entryDx=0;entryDy=0;" edge="1" parent="1" source="01ePJZ-pB_lnq8yCR7ID-1" target="01ePJZ-pB_lnq8yCR7ID-2">
          <mxGeometry relative="1" as="geometry" />
        </mxCell>
        <mxCell id="01ePJZ-pB_lnq8yCR7ID-4" value="How to pass&amp;nbsp;in a&amp;nbsp;&lt;div&gt;List/IEnumerable&lt;div&gt;as the request?&lt;/div&gt;&lt;div&gt;Have a request&lt;/div&gt;&lt;div&gt;that has 1 property&lt;/div&gt;&lt;div&gt;that is of type&amp;nbsp;&lt;/div&gt;&lt;div&gt;List&amp;lt;CoMerchClaimReq&amp;gt;&amp;nbsp;&lt;/div&gt;&lt;/div&gt;" style="edgeLabel;html=1;align=center;verticalAlign=middle;resizable=0;points=[];fontColor=#7F00FF;" vertex="1" connectable="0" parent="01ePJZ-pB_lnq8yCR7ID-3">
          <mxGeometry x="-0.325" y="-4" relative="1" as="geometry">
            <mxPoint x="19" y="46" as="offset" />
          </mxGeometry>
        </mxCell>
        <mxCell id="01ePJZ-pB_lnq8yCR7ID-1" value="&lt;u&gt;&lt;b&gt;InsertCoMerchClaim&lt;/b&gt;&lt;/u&gt;&lt;div&gt;&lt;u&gt;&lt;b&gt;&lt;br&gt;&lt;/b&gt;&lt;/u&gt;&lt;/div&gt;&lt;div&gt;&lt;u&gt;&lt;b&gt;Request:&lt;/b&gt;&lt;/u&gt;&lt;br&gt;List&amp;lt;&lt;b&gt;CoMerchClaimReq&lt;/b&gt;&amp;gt;&lt;br&gt;&lt;br&gt;&lt;div&gt;&lt;b&gt;CoMerchClaimReq&lt;/b&gt;&lt;/div&gt;&lt;div&gt;- companyId, merchantId, claimGroupId, isActive&lt;/div&gt;&lt;/div&gt;" style="rounded=1;whiteSpace=wrap;html=1;" vertex="1" parent="1">
          <mxGeometry x="100" y="-745" width="160" height="140" as="geometry" />
        </mxCell>
        <mxCell id="01ePJZ-pB_lnq8yCR7ID-2" value="&lt;b&gt;&lt;u&gt;Handler:&lt;/u&gt;&lt;/b&gt;&lt;div&gt;&lt;ol&gt;&lt;li&gt;Ensure co/merch pair exists - check co/merch table?&lt;br&gt;&lt;br&gt;&lt;/li&gt;&lt;li&gt;Ensure claimGroupId exists&lt;br&gt;&lt;br&gt;&lt;/li&gt;&lt;li&gt;For each item in request, insert 1 row in CoMerchClaim table&amp;nbsp;&lt;/li&gt;&lt;/ol&gt;&lt;/div&gt;" style="rounded=1;whiteSpace=wrap;html=1;" vertex="1" parent="1">
          <mxGeometry x="440" y="-760" width="240" height="170" as="geometry" />
        </mxCell>
        <mxCell id="UJZRmqqyvBs7-XoxkWH8-1" value="&lt;ol&gt;&lt;li&gt;&lt;span style=&quot;background-color: initial;&quot;&gt;CoMerch check if Co exists first&lt;/span&gt;&lt;/li&gt;&lt;li&gt;&lt;span style=&quot;background-color: initial;&quot;&gt;ClaimGroupClaim Model include properties which represent Claim and ClaimGroup objs&lt;/span&gt;&lt;/li&gt;&lt;li&gt;Repo - Remove select all, check exists (use Select by xId instead)&lt;/li&gt;&lt;li&gt;Consolidate update -&amp;nbsp; pass in entire model&lt;/li&gt;&lt;li&gt;ActivateMerchant using cId mId instead of MAK&lt;/li&gt;&lt;/ol&gt;" style="rounded=1;whiteSpace=wrap;html=1;" vertex="1" parent="1">
          <mxGeometry x="480" y="-1075" width="340" height="230" as="geometry" />
        </mxCell>
        <mxCell id="PeRvliBpn74YkOhBL2OL-1" value="&lt;u&gt;&lt;b&gt;GetAvailableClaimGroup&lt;/b&gt;&lt;/u&gt;&lt;div&gt;&lt;u&gt;&lt;b&gt;&lt;br&gt;&lt;/b&gt;&lt;/u&gt;&lt;/div&gt;&lt;div&gt;&lt;u&gt;&lt;b&gt;Request:&lt;/b&gt;&lt;/u&gt;&lt;br&gt;none&lt;/div&gt;" style="rounded=1;whiteSpace=wrap;html=1;" vertex="1" parent="1">
          <mxGeometry x="110" y="-510" width="160" height="80" as="geometry" />
        </mxCell>
        <mxCell id="PeRvliBpn74YkOhBL2OL-2" value="&lt;div&gt;&lt;u&gt;&lt;b&gt;Response:&lt;/b&gt;&lt;/u&gt;&lt;br&gt;List&amp;lt;&lt;b&gt;GetAvailableClaimGroupsResp&lt;/b&gt;&amp;gt;&lt;br&gt;&lt;br&gt;&lt;div&gt;&lt;b&gt;CoMerchClaimReq&lt;/b&gt;&lt;/div&gt;&lt;div&gt;-&amp;nbsp; claimGroupId, claimGroupName, claimGroupDetails, List&amp;lt;&lt;b&gt;Keys&lt;/b&gt;&amp;gt;&lt;/div&gt;&lt;/div&gt;&lt;div&gt;&lt;br&gt;&lt;/div&gt;&lt;div&gt;&lt;b&gt;Keys&lt;/b&gt;&lt;/div&gt;&lt;div&gt;- claimKey, ClaimFunctionName&lt;/div&gt;" style="rounded=1;whiteSpace=wrap;html=1;" vertex="1" parent="1">
          <mxGeometry x="320" y="-510" width="230" height="140" as="geometry" />
        </mxCell>
      </root>
    </mxGraphModel>
  </diagram>
  <diagram id="hktwKDHvNyKI-kTs6JNw" name="Page-6">
    <mxGraphModel dx="1426" dy="755" grid="1" gridSize="10" guides="1" tooltips="1" connect="1" arrows="1" fold="1" page="1" pageScale="1" pageWidth="850" pageHeight="1100" math="0" shadow="0">
      <root>
        <mxCell id="0" />
        <mxCell id="1" parent="0" />
        <mxCell id="Qhcf-c5PW33XsxnZ12tY-1" style="edgeStyle=orthogonalEdgeStyle;rounded=0;orthogonalLoop=1;jettySize=auto;html=1;entryX=1;entryY=0.5;entryDx=0;entryDy=0;" edge="1" parent="1" target="Qhcf-c5PW33XsxnZ12tY-44">
          <mxGeometry relative="1" as="geometry">
            <mxPoint x="570" y="110.00000000000023" as="sourcePoint" />
          </mxGeometry>
        </mxCell>
        <mxCell id="Qhcf-c5PW33XsxnZ12tY-2" style="edgeStyle=orthogonalEdgeStyle;rounded=0;orthogonalLoop=1;jettySize=auto;html=1;entryX=1;entryY=0.5;entryDx=0;entryDy=0;" edge="1" parent="1" source="Qhcf-c5PW33XsxnZ12tY-7" target="Qhcf-c5PW33XsxnZ12tY-46">
          <mxGeometry relative="1" as="geometry" />
        </mxCell>
        <mxCell id="Qhcf-c5PW33XsxnZ12tY-3" style="edgeStyle=orthogonalEdgeStyle;rounded=0;orthogonalLoop=1;jettySize=auto;html=1;entryX=1;entryY=0.5;entryDx=0;entryDy=0;" edge="1" parent="1" source="Qhcf-c5PW33XsxnZ12tY-7" target="Qhcf-c5PW33XsxnZ12tY-45">
          <mxGeometry relative="1" as="geometry" />
        </mxCell>
        <mxCell id="Qhcf-c5PW33XsxnZ12tY-4" style="edgeStyle=orthogonalEdgeStyle;rounded=0;orthogonalLoop=1;jettySize=auto;html=1;entryX=0;entryY=0.5;entryDx=0;entryDy=0;" edge="1" parent="1" source="Qhcf-c5PW33XsxnZ12tY-7" target="Qhcf-c5PW33XsxnZ12tY-8">
          <mxGeometry relative="1" as="geometry" />
        </mxCell>
        <mxCell id="Qhcf-c5PW33XsxnZ12tY-5" style="edgeStyle=orthogonalEdgeStyle;rounded=0;orthogonalLoop=1;jettySize=auto;html=1;entryX=0;entryY=0.5;entryDx=0;entryDy=0;" edge="1" parent="1" source="Qhcf-c5PW33XsxnZ12tY-7" target="Qhcf-c5PW33XsxnZ12tY-31">
          <mxGeometry relative="1" as="geometry" />
        </mxCell>
        <mxCell id="Qhcf-c5PW33XsxnZ12tY-6" style="edgeStyle=orthogonalEdgeStyle;rounded=0;orthogonalLoop=1;jettySize=auto;html=1;entryX=0;entryY=0.5;entryDx=0;entryDy=0;" edge="1" parent="1" source="Qhcf-c5PW33XsxnZ12tY-7" target="Qhcf-c5PW33XsxnZ12tY-37">
          <mxGeometry relative="1" as="geometry" />
        </mxCell>
        <mxCell id="Qhcf-c5PW33XsxnZ12tY-7" value="Merchant&lt;div&gt;via&amp;nbsp;&lt;span style=&quot;background-color: initial;&quot;&gt;MPO&lt;/span&gt;&lt;/div&gt;" style="shape=umlActor;verticalLabelPosition=bottom;verticalAlign=top;html=1;outlineConnect=0;" vertex="1" parent="1">
          <mxGeometry x="570" y="80" width="30" height="60" as="geometry" />
        </mxCell>
        <mxCell id="Qhcf-c5PW33XsxnZ12tY-8" value="8. Insert new Company Merchant mapping table" style="ellipse;whiteSpace=wrap;html=1;" vertex="1" parent="1">
          <mxGeometry x="680" y="70" width="120" height="80" as="geometry" />
        </mxCell>
        <mxCell id="Qhcf-c5PW33XsxnZ12tY-9" style="edgeStyle=orthogonalEdgeStyle;rounded=0;orthogonalLoop=1;jettySize=auto;html=1;entryX=0;entryY=0.5;entryDx=0;entryDy=0;" edge="1" parent="1" source="Qhcf-c5PW33XsxnZ12tY-12" target="Qhcf-c5PW33XsxnZ12tY-15">
          <mxGeometry relative="1" as="geometry">
            <Array as="points">
              <mxPoint x="520" y="620" />
              <mxPoint x="520" y="530" />
            </Array>
          </mxGeometry>
        </mxCell>
        <mxCell id="Qhcf-c5PW33XsxnZ12tY-11" style="edgeStyle=orthogonalEdgeStyle;rounded=0;orthogonalLoop=1;jettySize=auto;html=1;entryX=0;entryY=0.5;entryDx=0;entryDy=0;" edge="1" parent="1" source="Qhcf-c5PW33XsxnZ12tY-12" target="Qhcf-c5PW33XsxnZ12tY-49">
          <mxGeometry relative="1" as="geometry">
            <mxPoint x="527" y="820" as="targetPoint" />
            <Array as="points">
              <mxPoint x="520" y="620" />
              <mxPoint x="520" y="710" />
            </Array>
          </mxGeometry>
        </mxCell>
        <mxCell id="Qhcf-c5PW33XsxnZ12tY-12" value="eInvoicing Company" style="shape=umlActor;verticalLabelPosition=bottom;verticalAlign=top;html=1;outlineConnect=0;" vertex="1" parent="1">
          <mxGeometry x="450" y="590" width="30" height="60" as="geometry" />
        </mxCell>
        <mxCell id="Qhcf-c5PW33XsxnZ12tY-14" style="edgeStyle=orthogonalEdgeStyle;rounded=0;orthogonalLoop=1;jettySize=auto;html=1;exitX=1;exitY=0.5;exitDx=0;exitDy=0;" edge="1" parent="1" source="Qhcf-c5PW33XsxnZ12tY-15" target="Qhcf-c5PW33XsxnZ12tY-68">
          <mxGeometry relative="1" as="geometry" />
        </mxCell>
        <mxCell id="Qhcf-c5PW33XsxnZ12tY-15" value="1. Generate JWT Token by providing&lt;br&gt;client id,&amp;nbsp;secret,&lt;br&gt;merchantAccessKey" style="ellipse;whiteSpace=wrap;html=1;fillColor=#008a00;strokeColor=#005700;fontColor=#ffffff;" vertex="1" parent="1">
          <mxGeometry x="544.5" y="490" width="120" height="80" as="geometry" />
        </mxCell>
        <mxCell id="Qhcf-c5PW33XsxnZ12tY-16" style="edgeStyle=orthogonalEdgeStyle;rounded=0;orthogonalLoop=1;jettySize=auto;html=1;entryX=0;entryY=0.5;entryDx=0;entryDy=0;" edge="1" parent="1" source="Qhcf-c5PW33XsxnZ12tY-29" target="Qhcf-c5PW33XsxnZ12tY-30">
          <mxGeometry relative="1" as="geometry" />
        </mxCell>
        <mxCell id="Qhcf-c5PW33XsxnZ12tY-17" style="edgeStyle=orthogonalEdgeStyle;rounded=0;orthogonalLoop=1;jettySize=auto;html=1;entryX=0;entryY=0.5;entryDx=0;entryDy=0;" edge="1" parent="1" source="Qhcf-c5PW33XsxnZ12tY-29" target="Qhcf-c5PW33XsxnZ12tY-32">
          <mxGeometry relative="1" as="geometry" />
        </mxCell>
        <mxCell id="Qhcf-c5PW33XsxnZ12tY-18" style="edgeStyle=orthogonalEdgeStyle;rounded=0;orthogonalLoop=1;jettySize=auto;html=1;entryX=0;entryY=0.5;entryDx=0;entryDy=0;" edge="1" parent="1" source="Qhcf-c5PW33XsxnZ12tY-29" target="Qhcf-c5PW33XsxnZ12tY-34">
          <mxGeometry relative="1" as="geometry" />
        </mxCell>
        <mxCell id="Qhcf-c5PW33XsxnZ12tY-19" style="edgeStyle=orthogonalEdgeStyle;rounded=0;orthogonalLoop=1;jettySize=auto;html=1;entryX=0;entryY=0.5;entryDx=0;entryDy=0;" edge="1" parent="1" source="Qhcf-c5PW33XsxnZ12tY-29" target="Qhcf-c5PW33XsxnZ12tY-33">
          <mxGeometry relative="1" as="geometry" />
        </mxCell>
        <mxCell id="Qhcf-c5PW33XsxnZ12tY-20" style="edgeStyle=orthogonalEdgeStyle;rounded=0;orthogonalLoop=1;jettySize=auto;html=1;entryX=0;entryY=0.5;entryDx=0;entryDy=0;" edge="1" parent="1" source="Qhcf-c5PW33XsxnZ12tY-29" target="Qhcf-c5PW33XsxnZ12tY-35">
          <mxGeometry relative="1" as="geometry" />
        </mxCell>
        <mxCell id="Qhcf-c5PW33XsxnZ12tY-21" style="edgeStyle=orthogonalEdgeStyle;rounded=0;orthogonalLoop=1;jettySize=auto;html=1;entryX=0;entryY=0.5;entryDx=0;entryDy=0;" edge="1" parent="1" source="Qhcf-c5PW33XsxnZ12tY-29" target="Qhcf-c5PW33XsxnZ12tY-44">
          <mxGeometry relative="1" as="geometry">
            <Array as="points">
              <mxPoint x="350" y="50" />
              <mxPoint x="350" y="190" />
            </Array>
          </mxGeometry>
        </mxCell>
        <mxCell id="Qhcf-c5PW33XsxnZ12tY-22" style="edgeStyle=orthogonalEdgeStyle;rounded=0;orthogonalLoop=1;jettySize=auto;html=1;entryX=0;entryY=0.5;entryDx=0;entryDy=0;" edge="1" parent="1" source="Qhcf-c5PW33XsxnZ12tY-29" target="Qhcf-c5PW33XsxnZ12tY-46">
          <mxGeometry relative="1" as="geometry">
            <Array as="points">
              <mxPoint x="350" y="50" />
              <mxPoint x="350" y="290" />
            </Array>
          </mxGeometry>
        </mxCell>
        <mxCell id="Qhcf-c5PW33XsxnZ12tY-23" style="edgeStyle=orthogonalEdgeStyle;rounded=0;orthogonalLoop=1;jettySize=auto;html=1;entryX=0;entryY=0.5;entryDx=0;entryDy=0;" edge="1" parent="1" source="Qhcf-c5PW33XsxnZ12tY-29" target="Qhcf-c5PW33XsxnZ12tY-45">
          <mxGeometry relative="1" as="geometry">
            <Array as="points">
              <mxPoint x="350" y="50" />
              <mxPoint x="350" y="390" />
            </Array>
          </mxGeometry>
        </mxCell>
        <mxCell id="Qhcf-c5PW33XsxnZ12tY-24" style="edgeStyle=orthogonalEdgeStyle;rounded=0;orthogonalLoop=1;jettySize=auto;html=1;entryX=0;entryY=0.5;entryDx=0;entryDy=0;" edge="1" parent="1" source="Qhcf-c5PW33XsxnZ12tY-29" target="Qhcf-c5PW33XsxnZ12tY-38">
          <mxGeometry relative="1" as="geometry" />
        </mxCell>
        <mxCell id="Qhcf-c5PW33XsxnZ12tY-25" style="edgeStyle=orthogonalEdgeStyle;rounded=0;orthogonalLoop=1;jettySize=auto;html=1;entryX=0;entryY=0.5;entryDx=0;entryDy=0;" edge="1" parent="1" source="Qhcf-c5PW33XsxnZ12tY-29" target="Qhcf-c5PW33XsxnZ12tY-36">
          <mxGeometry relative="1" as="geometry" />
        </mxCell>
        <mxCell id="Qhcf-c5PW33XsxnZ12tY-26" style="edgeStyle=orthogonalEdgeStyle;rounded=0;orthogonalLoop=1;jettySize=auto;html=1;entryX=0;entryY=0.5;entryDx=0;entryDy=0;" edge="1" parent="1" source="Qhcf-c5PW33XsxnZ12tY-29" target="Qhcf-c5PW33XsxnZ12tY-39">
          <mxGeometry relative="1" as="geometry" />
        </mxCell>
        <mxCell id="Qhcf-c5PW33XsxnZ12tY-27" style="edgeStyle=orthogonalEdgeStyle;rounded=0;orthogonalLoop=1;jettySize=auto;html=1;entryX=0;entryY=0.5;entryDx=0;entryDy=0;" edge="1" parent="1" source="Qhcf-c5PW33XsxnZ12tY-29" target="Qhcf-c5PW33XsxnZ12tY-40">
          <mxGeometry relative="1" as="geometry" />
        </mxCell>
        <mxCell id="Qhcf-c5PW33XsxnZ12tY-28" style="edgeStyle=orthogonalEdgeStyle;rounded=0;orthogonalLoop=1;jettySize=auto;html=1;entryX=0;entryY=0.5;entryDx=0;entryDy=0;" edge="1" parent="1" source="Qhcf-c5PW33XsxnZ12tY-29" target="Qhcf-c5PW33XsxnZ12tY-41">
          <mxGeometry relative="1" as="geometry" />
        </mxCell>
        <mxCell id="Qhcf-c5PW33XsxnZ12tY-29" value="Back Office Users&lt;div&gt;via BBO&lt;/div&gt;" style="shape=umlActor;verticalLabelPosition=bottom;verticalAlign=top;html=1;outlineConnect=0;" vertex="1" parent="1">
          <mxGeometry x="80" y="20" width="30" height="60" as="geometry" />
        </mxCell>
        <mxCell id="Qhcf-c5PW33XsxnZ12tY-30" value="3. Insert new&amp;nbsp;Company&lt;div&gt;Return 426 for duplicate&lt;/div&gt;" style="ellipse;whiteSpace=wrap;html=1;fillColor=#008a00;strokeColor=#005700;fontColor=#ffffff;" vertex="1" parent="1">
          <mxGeometry x="200" y="80" width="120" height="80" as="geometry" />
        </mxCell>
        <mxCell id="Qhcf-c5PW33XsxnZ12tY-31" value="4. Regenerate merchant access key" style="ellipse;whiteSpace=wrap;html=1;" vertex="1" parent="1">
          <mxGeometry x="680" y="200" width="120" height="80" as="geometry" />
        </mxCell>
        <mxCell id="Qhcf-c5PW33XsxnZ12tY-32" value="Regenerate Company Id and secret" style="ellipse;whiteSpace=wrap;html=1;fillColor=#d5e8d4;strokeColor=#82b366;" vertex="1" parent="1">
          <mxGeometry x="200" y="490" width="120" height="80" as="geometry" />
        </mxCell>
        <mxCell id="Qhcf-c5PW33XsxnZ12tY-33" value="13. Get Company-Merchant info" style="ellipse;whiteSpace=wrap;html=1;fillColor=#008a00;strokeColor=#005700;fontColor=#ffffff;" vertex="1" parent="1">
          <mxGeometry x="200" y="590" width="120" height="80" as="geometry" />
        </mxCell>
        <mxCell id="Qhcf-c5PW33XsxnZ12tY-34" value="12. Activate Company-Merchant by Merchant Access Key" style="ellipse;whiteSpace=wrap;html=1;fillColor=#d5e8d4;strokeColor=#82b366;" vertex="1" parent="1">
          <mxGeometry x="200" y="890" width="120" height="80" as="geometry" />
        </mxCell>
        <mxCell id="Qhcf-c5PW33XsxnZ12tY-35" value="16. Suspend all Companies by Merchant ID" style="ellipse;whiteSpace=wrap;html=1;fillColor=#008a00;strokeColor=#005700;fontColor=#ffffff;" vertex="1" parent="1">
          <mxGeometry x="200" y="990" width="120" height="80" as="geometry" />
        </mxCell>
        <mxCell id="Qhcf-c5PW33XsxnZ12tY-36" value="Delete Company to ensure BBO side and our side sync&amp;nbsp;&lt;div&gt;&lt;font style=&quot;font-size: 8px;&quot;&gt;(for cases where BBO side failed, they will call to delete)&lt;/font&gt;&lt;/div&gt;" style="ellipse;whiteSpace=wrap;html=1;fillColor=#d5e8d4;strokeColor=#82b366;" vertex="1" parent="1">
          <mxGeometry x="200" y="290" width="120" height="80" as="geometry" />
        </mxCell>
        <mxCell id="Qhcf-c5PW33XsxnZ12tY-37" value="9. Grant access right to company" style="ellipse;whiteSpace=wrap;html=1;" vertex="1" parent="1">
          <mxGeometry x="680" y="330" width="120" height="80" as="geometry" />
        </mxCell>
        <mxCell id="Qhcf-c5PW33XsxnZ12tY-38" value="6. Update Company Status &lt;font style=&quot;font-size: 8px;&quot;&gt;(To call when&amp;nbsp; #3 Returns 426 Duplicate)&lt;/font&gt;" style="ellipse;whiteSpace=wrap;html=1;fillColor=#d5e8d4;strokeColor=#82b366;" vertex="1" parent="1">
          <mxGeometry x="200" y="190" width="120" height="80" as="geometry" />
        </mxCell>
        <mxCell id="Qhcf-c5PW33XsxnZ12tY-39" value="7. Update Merchant Status" style="ellipse;whiteSpace=wrap;html=1;fillColor=#d5e8d4;strokeColor=#82b366;" vertex="1" parent="1">
          <mxGeometry x="200" y="390" width="120" height="80" as="geometry" />
        </mxCell>
        <mxCell id="Qhcf-c5PW33XsxnZ12tY-40" value="14. Get available claim groups" style="ellipse;whiteSpace=wrap;html=1;fillColor=#008a00;strokeColor=#005700;fontColor=#ffffff;" vertex="1" parent="1">
          <mxGeometry x="200" y="690" width="120" height="80" as="geometry" />
        </mxCell>
        <mxCell id="Qhcf-c5PW33XsxnZ12tY-41" value="15. Insert company claim group" style="ellipse;whiteSpace=wrap;html=1;fillColor=#008a00;strokeColor=#005700;fontColor=#ffffff;" vertex="1" parent="1">
          <mxGeometry x="200" y="790" width="120" height="80" as="geometry" />
        </mxCell>
        <mxCell id="Qhcf-c5PW33XsxnZ12tY-44" value="5. Get Claims by Merchant ID&lt;div&gt;(Group By Company, Claim Group, Claim)&lt;/div&gt;" style="ellipse;whiteSpace=wrap;html=1;fillColor=#008a00;strokeColor=#005700;fontColor=#ffffff;" vertex="1" parent="1">
          <mxGeometry x="390" y="150" width="120" height="80" as="geometry" />
        </mxCell>
        <mxCell id="Qhcf-c5PW33XsxnZ12tY-45" value="10. Get Company by Merchant ID" style="ellipse;whiteSpace=wrap;html=1;fillColor=#d5e8d4;strokeColor=#82b366;" vertex="1" parent="1">
          <mxGeometry x="390" y="350" width="120" height="80" as="geometry" />
        </mxCell>
        <mxCell id="Qhcf-c5PW33XsxnZ12tY-46" value="11. Get Claims by Company-Merchant ID&lt;div&gt;(Group By Company, Claim Group, Claim)&lt;/div&gt;" style="ellipse;whiteSpace=wrap;html=1;fillColor=#008a00;strokeColor=#005700;fontColor=#ffffff;" vertex="1" parent="1">
          <mxGeometry x="390" y="250" width="120" height="80" as="geometry" />
        </mxCell>
        <mxCell id="Qhcf-c5PW33XsxnZ12tY-47" value="4. Regenerate merchant access key" style="ellipse;whiteSpace=wrap;html=1;fillColor=#d5e8d4;strokeColor=#82b366;" vertex="1" parent="1">
          <mxGeometry x="680" y="200" width="120" height="80" as="geometry" />
        </mxCell>
        <mxCell id="Qhcf-c5PW33XsxnZ12tY-48" value="8. Insert new Company Merchant mapping table" style="ellipse;whiteSpace=wrap;html=1;fillColor=#d5e8d4;strokeColor=#82b366;" vertex="1" parent="1">
          <mxGeometry x="680" y="70" width="120" height="80" as="geometry" />
        </mxCell>
        <mxCell id="Qhcf-c5PW33XsxnZ12tY-49" value="17. Retrieve Merchant&#39;s QR Transaction Details by Date" style="ellipse;whiteSpace=wrap;html=1;fillColor=#008a00;strokeColor=#005700;fontColor=#ffffff;" vertex="1" parent="1">
          <mxGeometry x="550" y="670" width="120" height="80" as="geometry" />
        </mxCell>
        <mxCell id="Qhcf-c5PW33XsxnZ12tY-50" value="4. Regenerate merchant access key" style="ellipse;whiteSpace=wrap;html=1;fillColor=#d5e8d4;strokeColor=#82b366;" vertex="1" parent="1">
          <mxGeometry x="680" y="200" width="120" height="80" as="geometry" />
        </mxCell>
        <mxCell id="Qhcf-c5PW33XsxnZ12tY-51" value="4. Regenerate merchant access key" style="ellipse;whiteSpace=wrap;html=1;fillColor=#008a00;strokeColor=#005700;fontColor=#ffffff;" vertex="1" parent="1">
          <mxGeometry x="680" y="200" width="120" height="80" as="geometry" />
        </mxCell>
        <mxCell id="Qhcf-c5PW33XsxnZ12tY-52" value="8. Insert new Company Merchant mapping table" style="ellipse;whiteSpace=wrap;html=1;fillColor=#008a00;strokeColor=#005700;fontColor=#ffffff;" vertex="1" parent="1">
          <mxGeometry x="680" y="70" width="120" height="80" as="geometry" />
        </mxCell>
        <mxCell id="Qhcf-c5PW33XsxnZ12tY-53" value="7. Update Merchant Status" style="ellipse;whiteSpace=wrap;html=1;fillColor=#008a00;strokeColor=#005700;fontColor=#ffffff;" vertex="1" parent="1">
          <mxGeometry x="200" y="390" width="120" height="80" as="geometry" />
        </mxCell>
        <mxCell id="Qhcf-c5PW33XsxnZ12tY-54" value="Delete Company to ensure BBO side and our side sync&amp;nbsp;&lt;div&gt;&lt;font style=&quot;font-size: 8px;&quot;&gt;(for cases where BBO side failed, they will call to delete)&lt;/font&gt;&lt;/div&gt;" style="ellipse;whiteSpace=wrap;html=1;fillColor=#d5e8d4;strokeColor=#82b366;" vertex="1" parent="1">
          <mxGeometry x="200" y="290" width="120" height="80" as="geometry" />
        </mxCell>
        <mxCell id="Qhcf-c5PW33XsxnZ12tY-56" value="10. Get Company by Merchant ID" style="ellipse;whiteSpace=wrap;html=1;fillColor=#008a00;strokeColor=#005700;fontColor=#ffffff;" vertex="1" parent="1">
          <mxGeometry x="390" y="350" width="120" height="80" as="geometry" />
        </mxCell>
        <mxCell id="Qhcf-c5PW33XsxnZ12tY-57" value="6. Update Company Status &lt;font style=&quot;font-size: 8px;&quot;&gt;(To call when&amp;nbsp; #3 Returns 426 Duplicate)&lt;/font&gt;" style="ellipse;whiteSpace=wrap;html=1;fillColor=#008a00;strokeColor=#005700;fontColor=#ffffff;" vertex="1" parent="1">
          <mxGeometry x="200" y="190" width="120" height="80" as="geometry" />
        </mxCell>
        <mxCell id="Qhcf-c5PW33XsxnZ12tY-58" value="12. Activate Company-Merchant by Merchant Access Key" style="ellipse;whiteSpace=wrap;html=1;fillColor=#008a00;strokeColor=#005700;fontColor=#ffffff;" vertex="1" parent="1">
          <mxGeometry x="200" y="890" width="120" height="80" as="geometry" />
        </mxCell>
        <mxCell id="Qhcf-c5PW33XsxnZ12tY-64" value="GetClaimKeysByMerchantId" style="rounded=0;whiteSpace=wrap;html=1;fillColor=#dae8fc;strokeColor=#6c8ebf;" vertex="1" parent="1">
          <mxGeometry x="377" y="220" width="150" height="20" as="geometry" />
        </mxCell>
        <mxCell id="Qhcf-c5PW33XsxnZ12tY-68" value="2. Get EInvoice Company Claim Keys" style="ellipse;whiteSpace=wrap;html=1;fillColor=#008a00;strokeColor=#005700;fontColor=#ffffff;" vertex="1" parent="1">
          <mxGeometry x="710" y="495" width="110" height="70" as="geometry" />
        </mxCell>
        <mxCell id="Qhcf-c5PW33XsxnZ12tY-72" value="GetTpiClaimDetailsByMerchant" style="rounded=0;whiteSpace=wrap;html=1;fillColor=#dae8fc;strokeColor=#6c8ebf;" vertex="1" parent="1">
          <mxGeometry x="359.5" y="326" width="185" height="20" as="geometry" />
        </mxCell>
        <mxCell id="Qhcf-c5PW33XsxnZ12tY-76" value="&lt;b&gt;&lt;u&gt;Pending:&lt;/u&gt;&lt;/b&gt;&lt;div&gt;Controller&lt;div&gt;Request&lt;div&gt;Response&lt;/div&gt;&lt;div&gt;Handler&lt;/div&gt;&lt;/div&gt;&lt;/div&gt;" style="rounded=0;whiteSpace=wrap;html=1;fillColor=#ffe6cc;strokeColor=#d79b00;" vertex="1" parent="1">
          <mxGeometry x="390" y="40" width="120" height="80" as="geometry" />
        </mxCell>
        <mxCell id="Qhcf-c5PW33XsxnZ12tY-78" value="Insert companyMerchant claim group" style="rounded=0;whiteSpace=wrap;html=1;fillColor=#ffe6cc;strokeColor=#d79b00;" vertex="1" parent="1">
          <mxGeometry x="630" y="400" width="205" height="20" as="geometry" />
        </mxCell>
      </root>
    </mxGraphModel>
  </diagram>
</mxfile>
